<?xml version="1.0" encoding="UTF-8"?>
<svg id="Layer_1" xmlns="http://www.w3.org/2000/svg" xmlns:xlink="http://www.w3.org/1999/xlink" version="1.1" viewBox="0 0 1200 800">
  <!-- Generator: Adobe Illustrator 29.1.0, SVG Export Plug-In . SVG Version: 2.1.0 Build 142)  -->
  <defs>
    <style>
      .st0, .st1, .st2, .st3, .st4, .st5, .st6, .st7, .st8, .st9, .st10, .st11, .st12, .st13, .st14, .st15, .st16, .st17, .st18, .st19, .st20, .st21, .st22, .st23, .st24, .st25, .st26, .st27 {
        fill: none;
      }

      .st1, .st4 {
        stroke: #595956;
      }

      .st1, .st6, .st12, .st13, .st22 {
        stroke-width: 1.05px;
      }

      .st2, .st3, .st4, .st5, .st7, .st8, .st9, .st10, .st11, .st14, .st15, .st16, .st17, .st18, .st19, .st20, .st23, .st24, .st25, .st26, .st27 {
        stroke-width: 2.1px;
      }

      .st2, .st6 {
        stroke: #bfbfbf;
      }

      .st3 {
        stroke-dasharray: 5.24 5.24;
      }

      .st3, .st5, .st7, .st8, .st9, .st10, .st11, .st14, .st15, .st16, .st17, .st18, .st19, .st20, .st23, .st25, .st26, .st27 {
        stroke: #a6592d;
        stroke-linecap: round;
      }

      .st5 {
        stroke-dasharray: 4.94 4.94;
      }

      .st7 {
        stroke-dasharray: 5.97 5.97;
      }

      .st8 {
        stroke-dasharray: 4.56 4.56;
      }

      .st9 {
        stroke-dasharray: 5.6 5.6;
      }

      .st10 {
        stroke-dasharray: 5.1 5.1;
      }

      .st11 {
        stroke-dasharray: 3.39 3.39;
      }

      .st12 {
        stroke: #313640;
      }

      .st13 {
        stroke: #d9d0c1;
      }

      .st14 {
        stroke-dasharray: 5.17 5.17;
      }

      .st15 {
        stroke-dasharray: 4.53 4.53;
      }

      .st16 {
        stroke-dasharray: 5.66 5.66;
      }

      .st17 {
        stroke-dasharray: 5.24 5.24;
      }

      .st18 {
        stroke-dasharray: 4.9 4.9;
      }

      .st28 {
        fill: #f2f2f2;
      }

      .st19 {
        stroke-dasharray: 4.71 4.71;
      }

      .st20 {
        stroke-dasharray: 5.34 5.34;
      }

      .st21 {
        stroke: #e3e3e3;
        stroke-miterlimit: 10;
        stroke-width: 1.01px;
      }

      .st22, .st24 {
        stroke: #a69e8f;
      }

      .st23 {
        stroke-dasharray: 6.75 6.75;
      }

      .st25 {
        stroke-dasharray: 5.24;
      }

      .st26 {
        stroke-dasharray: 7.36 7.36;
      }

      .st29 {
        clip-path: url(#clippath);
      }

      .st27 {
        stroke-dasharray: 4.61 4.61;
      }
    </style>
    <clipPath id="clippath">
      <rect id="mask" class="st0" width="1200" height="800"/>
    </clipPath>
  </defs>
  <g class="st29">
    <rect id="background" class="st28" width="1200" height="800"/>
    <g id="gride">
      <g>
        <rect class="st21" x="-7" y="-4.67" width="404.67" height="404.67"/>
        <line class="st21" x1="-7" y1="332.56" x2="397.67" y2="332.56"/>
        <line class="st21" x1="-7" y1="265.11" x2="397.67" y2="265.11"/>
        <line class="st21" x1="-7" y1="197.67" x2="397.67" y2="197.67"/>
        <line class="st21" x1="-7" y1="130.22" x2="397.67" y2="130.22"/>
        <line class="st21" x1="-7" y1="62.78" x2="397.67" y2="62.78"/>
        <line class="st21" x1="330.22" y1="-4.67" x2="330.22" y2="400"/>
        <line class="st21" x1="262.78" y1="-4.67" x2="262.78" y2="400"/>
        <line class="st21" x1="195.33" y1="-4.67" x2="195.33" y2="400"/>
        <line class="st21" x1="127.89" y1="-4.67" x2="127.89" y2="400"/>
        <line class="st21" x1="60.44" y1="-4.67" x2="60.44" y2="400"/>
      </g>
      <g>
        <rect class="st21" x="-7" y="400" width="404.67" height="404.67"/>
        <line class="st21" x1="-7" y1="737.22" x2="397.67" y2="737.22"/>
        <line class="st21" x1="-7" y1="669.78" x2="397.67" y2="669.78"/>
        <line class="st21" x1="-7" y1="602.33" x2="397.67" y2="602.33"/>
        <line class="st21" x1="-7" y1="534.89" x2="397.67" y2="534.89"/>
        <line class="st21" x1="-7" y1="467.44" x2="397.67" y2="467.44"/>
        <line class="st21" x1="330.22" y1="400" x2="330.22" y2="804.67"/>
        <line class="st21" x1="262.78" y1="400" x2="262.78" y2="804.67"/>
        <line class="st21" x1="195.33" y1="400" x2="195.33" y2="804.67"/>
        <line class="st21" x1="127.89" y1="400" x2="127.89" y2="804.67"/>
        <line class="st21" x1="60.44" y1="400" x2="60.44" y2="804.67"/>
      </g>
      <g>
        <rect class="st21" x="397.67" y="-4.67" width="404.67" height="404.67"/>
        <line class="st21" x1="397.67" y1="332.56" x2="802.33" y2="332.56"/>
        <line class="st21" x1="397.67" y1="265.11" x2="802.33" y2="265.11"/>
        <line class="st21" x1="397.67" y1="197.67" x2="802.33" y2="197.67"/>
        <line class="st21" x1="397.67" y1="130.22" x2="802.33" y2="130.22"/>
        <line class="st21" x1="397.67" y1="62.78" x2="802.33" y2="62.78"/>
        <line class="st21" x1="734.89" y1="-4.67" x2="734.89" y2="400"/>
        <line class="st21" x1="667.44" y1="-4.67" x2="667.44" y2="400"/>
        <line class="st21" x1="600" y1="-4.67" x2="600" y2="400"/>
        <line class="st21" x1="532.56" y1="-4.67" x2="532.56" y2="400"/>
        <line class="st21" x1="465.11" y1="-4.67" x2="465.11" y2="400"/>
      </g>
      <g>
        <rect class="st21" x="397.67" y="400" width="404.67" height="404.67"/>
        <line class="st21" x1="397.67" y1="737.22" x2="802.33" y2="737.22"/>
        <line class="st21" x1="397.67" y1="669.78" x2="802.33" y2="669.78"/>
        <line class="st21" x1="397.67" y1="602.33" x2="802.33" y2="602.33"/>
        <line class="st21" x1="397.67" y1="534.89" x2="802.33" y2="534.89"/>
        <line class="st21" x1="397.67" y1="467.44" x2="802.33" y2="467.44"/>
        <line class="st21" x1="734.89" y1="400" x2="734.89" y2="804.67"/>
        <line class="st21" x1="667.44" y1="400" x2="667.44" y2="804.67"/>
        <line class="st21" x1="600" y1="400" x2="600" y2="804.67"/>
        <line class="st21" x1="532.56" y1="400" x2="532.56" y2="804.67"/>
        <line class="st21" x1="465.11" y1="400" x2="465.11" y2="804.67"/>
      </g>
      <g>
        <rect class="st21" x="802.33" y="-4.67" width="404.67" height="404.67"/>
        <line class="st21" x1="802.33" y1="332.56" x2="1207" y2="332.56"/>
        <line class="st21" x1="802.33" y1="265.11" x2="1207" y2="265.11"/>
        <line class="st21" x1="802.33" y1="197.67" x2="1207" y2="197.67"/>
        <line class="st21" x1="802.33" y1="130.22" x2="1207" y2="130.22"/>
        <line class="st21" x1="802.33" y1="62.78" x2="1207" y2="62.78"/>
        <line class="st21" x1="1139.56" y1="-4.67" x2="1139.56" y2="400"/>
        <line class="st21" x1="1072.11" y1="-4.67" x2="1072.11" y2="400"/>
        <line class="st21" x1="1004.67" y1="-4.67" x2="1004.67" y2="400"/>
        <line class="st21" x1="937.22" y1="-4.67" x2="937.22" y2="400"/>
        <line class="st21" x1="869.78" y1="-4.67" x2="869.78" y2="400"/>
      </g>
      <g>
        <rect class="st21" x="802.33" y="400" width="404.67" height="404.67"/>
        <line class="st21" x1="802.33" y1="737.22" x2="1207" y2="737.22"/>
        <line class="st21" x1="802.33" y1="669.78" x2="1207" y2="669.78"/>
        <line class="st21" x1="802.33" y1="602.33" x2="1207" y2="602.33"/>
        <line class="st21" x1="802.33" y1="534.89" x2="1207" y2="534.89"/>
        <line class="st21" x1="802.33" y1="467.44" x2="1207" y2="467.44"/>
        <line class="st21" x1="1139.56" y1="400" x2="1139.56" y2="804.67"/>
        <line class="st21" x1="1072.11" y1="400" x2="1072.11" y2="804.67"/>
        <line class="st21" x1="1004.67" y1="400" x2="1004.67" y2="804.67"/>
        <line class="st21" x1="937.22" y1="400" x2="937.22" y2="804.67"/>
        <line class="st21" x1="869.78" y1="400" x2="869.78" y2="804.67"/>
      </g>
    </g>
    <g id="relief">
      <path id="path" class="st1" d="M1462.97,427.72c5.96-1.66,15.21-5.63,6.72-12.68-7.73-6.41-12.45,14.27-6.72,12.68ZM1477.69,428.87c.31-.49-1.38-.58-1.38,0,0,.69,1.24.23,1.38,0ZM-366.25,660.5c.55-.75-.27-2.21-1.1-2.3-1.99-.23-.45,4.43,1.1,2.3ZM-292.92,714.67c-.09-1.39-3-1.85-2.69,0,.2,1.21,2.76,1.22,2.69,0ZM-300.09,718.12c1.11-.87,5.28-4.16,1.79-4.38-1.4-.09-4.52,6.5-1.79,4.38ZM471.7,890.99c2.12-1.04.57-2.89-1.34-2.36-2.39.66-.49,3.26,1.34,2.36ZM614.8,895.6c3.34-.29,3.37-4.09.77-4.8-3.85-1.06-6.24,5.27-.77,4.8ZM560.32,905.97c3.41-1.51,1.65-7.32-1.23-3.97-.76.89-.84,4.88,1.23,3.97ZM590.6,909.42c.97-.38,2.19-1.37.77-1.92-1.16-.44-2.05,2.43-.77,1.92ZM623.25,912.88c1.96-1.05,3.29-3.02,3.84-5.38.95-4.01-9.96,8.66-3.84,5.38ZM545.97,915.19c.9-1,1.73-3.48-.47-2.3-2.01,1.07-1.14,4.08.47,2.3ZM543.21,918.64c.1-.27.02-.9-.13-1.15s-.16,1.94.13,1.15ZM530.92,929.02c.03-.22-.41-.65-.63-.63-.9.06.52,1.44.63.63ZM72.66,493.4c.85,4.98,9.16,8.33,2.42,10.28-10.95,3.17-9.61,11.45-13.83,18.13-2.51,3.98-.48,14.19.31,18.84,2.08,12.26-12.81,19.84-10.02,31.12,2.99,12.06-14.15,20.79-3.6,33.42,13.12,15.72,39.88,20.62,42.92,39.18,1.79,10.93-9.25-1.41-14.63,1.46-14.97,7.99,17.77,19.58,11.75,28.5-4.44,6.6-23.43-3.41-30-6.91-3-1.6-2.77,5.89-5.95,5.51-26.3-3.1-31.69,23.68-36.58,41.73-3.02,11.14,1.45,2.99,7.2,12.68,10.59,17.84-7.47,23.07-19.36,32.26-6.35,4.92,4.11,11.37,2.6,18.44-1.87,8.78,11.35,10.91.73,20.74-13.17,12.2-34.05-16.08-33.84,5.76.32,34.2-35.1,19.74-3.6,62.23,8.41,11.34-.28,20.08-14.24,20.74-8.26.39-8.97,11.6.29,13.31,4.77.88,13.86-3.64,15.24,2.83,2.84,13.28,7.95,24.36,6.5,36.88-1.55,13.4,7.62,10.86,16.29,10.95,14.05.15,18.61-15.76,36.88-4.45,22.52,13.95,77.79,24.81,90.44,2.73,3.16-5.52,7.85-10.04,12.89-11.53,14.67-4.36,9.82-10.79,22.28,2.5,4.42,4.71,3.68-11.31,6.8-3.65,2.15,5.28,8.17,4.2,5.88.38-2.46-4.11-4.63-6.68-6.72-10.76-6.71-13.03-13.44-26.81,7.87-28.26,3.06-.21,2.83,5.46,2.31,5.99-2.03,2.05-15.2,5.27-6.92,5.76,3.99.24,5.13-8.98,7.3.38,1.39,5.98-.95,11.16-.04,17.29,1.15,7.74-.84,15.15,3.88,23.05,21.04,35.2,30.64,6.61,41.87-25.11,3.33-9.4,11.55-4.27,16.76-8.31,7.33-5.68,5.42-44.24,19.83-32.27,3.42,2.84,2.42,11.47,8.74,9.22,12.96-4.6,7.78-25.5,12.29-35.61,1.72-3.86,14.17.86,12.45-3.57s-1.61-7.6,2.92-4.61c7.43,4.91,1.52,4.77,3.84,9.22s7.26,9.89,5.86,14.98c-3.87,14.04-11.98,33.67-.35,41.49,3.73,2.5,9.09,4.85,5.24,8.39-3.51,3.22-.37,4.95.77,8.9,3.53,12.26-3.23,6.43,2.69,15.16,11.3,16.69,34.69-3.51,53.01-5.18,4.65-.42,4.1-8.99,9.22-8.34,11.27,1.43,13.47-5.08,21.9-9.93,17.76-10.21-1.29-40.66,7.46-60.86,4.91-11.32,9.66-17.74,14.07-29.97,1.11-3.08-2.79-11.33,3.82-9.66,6.64,1.68,8.41-5.29,1.15-5.51-9.92-.31,7.69-17.48,10.37,5.57,3.69,31.79,14.66-26.78,14.89,26.89.08,18.93,7.57-20.62,15.45-2.3,2.37,5.51,6.09,7.75,9.9,12.67,2.95,3.81,2.34,8.63,5.74,13.83,3.19,4.89,2.56,4.58.11,14.02s-7.16,4.96-8.76,10.18c-2.94,9.62-6.32,19.53-3.6,29.96,1.68,6.44-10.45,20.11-6.08,21.32,9.5,2.62,35.33,6.25,38.18-4.03,3.98-14.37,11.23-5.41,18.3-12.99,4.9-5.25,10.02-1.48,10.23-7.75.33-10.1,8.99-7.93,24.34-24.49,5.31-5.72,9.61-12.85,12.87-19.3,2.17-4.3,12.42.17,7.8,4.61-5.98,5.75-11.25,5.62-5.25,10.37,7.12,5.64,28.96-38.51,32.86-17.28.75,4.07-.3,7.54-5.65,9.45-12.13,4.31,3.32,15.53,10.37,11.48,11.49-6.6-16.02-5.37,9.22-15.05,3.96-1.52,9,.5,11.17,4.49,1.17,2.15-5.1,13.19,2.66,8.99,3.79-2.05,7.89,2.3,11.9,1.38,11.23-2.56,4.4-8.76,12.48-13.83,5.14-3.23,5.7-9.35.04,2.31-6.42,13.22-29.6,32.39-16.36,41.78,4.25,3.01,7.11,8.66,1.15,7.93-5.25-.65-19.87,12.21-9.22,11.95,147.41-3.59,295.03.77,442.53,0,193.26-1.02,453.33,144.57,580.24-.57,95.03-108.69-31.71-314.3.03-459.81,4.47-20.5-16.75-23.79-31.72-24.51-21.75-1.04-46.11,5.05-69.14,5.2-6.79.05-16.6-4.39-23.05-3.3-6.87,1.16,1.51-3.66,4.61-4.29,3.43-.7-1.68-2.97-4.61-3.19-6.51-.48-8.85-1.82-14.98-2.23-19.02-1.27-37.51-9.35-56.47-7.02-15.17,1.87-8.4-8.36-2.31-13.57,3.66-3.13,6.61,3.76,9.22.27,4.82-6.45-6.5-10.2-4.61-16.13,3.57-11.2-7.8-3.85-8.52-10.75-1.96-18.69,14.48,2.66,10.18-11.53-1.49-4.91-7.63-8.31-7.42-14.21.46-12.75,80.53,4.56,86.43-11.02,2.25-5.95,2.47,6.36,7.88,6.8,4.01.32,1.11-5.45,2.5-7.55,8.92-13.59,5.48,11.31,16.13,8.01,11.05-3.42,17.21-4.75,28.81-7.6,7.24-1.78,14.02-3.36,18.44-8.07,5.93-6.32,14.48-3.69,19.94-4.38,6.52-.82,11.71,2.11,18.09-.15,163.84-57.84,125.47-411.45.58-536.88-518.04-520.27-1720.11-515.91-2224.16,4.59-177.1,182.88-212.61,799.14,2.52,807.86,16.89.68,16.56-12.97,26.51-6.91,21.15,12.89,5.32-21.51,16.49-23.28,4.45-.7,4.82,6.29,4.76,9.45-.05,2.48-7.12.24-4.87,2.3,6.39,5.85,1.57,7.26,7.41,12.68,9.85,9.14.84,22.47,5.38,33.91,8.34,20.99-14.6,51.16-21.89,75.19-2.54,8.38-9.57,15.54-6.58,22.28,2.6,5.87,13.31,3.33,16.23,11.53,2.8,7.86,12.12,6.35,19.15,13.75,7.74,8.15,10.5,13.61,17.91,19.67,13.11,10.71,5.83,10.07.24,19.59s-11.03,10.08-18.4,13.83c-17.95,9.13-37.86,1.29-53.32,10.37-13.37,7.85,36.48,5.02,39.46,12.68,6.36,16.35,8.06,2.71,21.25,16.13,4.03,4.1,11.75,1.66,7.85,7.55-6.44,9.74,12.53,13.88,7.26,25.87-5.89,13.37-39.19,19.24-45.28,32.14-17,36,176.66,10.66,247.76,5.32,4.13-.31,3.45-13.69-2.23-12.11-15.48,4.3-18.01-4.35-30.03-8.25-5.67-1.84-1.18-9.48-8.92-10.19-9.65-.89-9.07-29.8-23.36-24.95-14.53,4.93-25.51-5.03-33.42-13.24-8.33-8.65-16.01-2.26-18.62-12.52-2.13-8.37-10.42-15.49-8.33-24.2,2.28-9.52-6.81-8.04-7.06-12.68-1.04-19.13-21.65-25.67-20.29-49.56.34-5.91,2.53-14.34,3.6-21.27,1.34-8.67-2.43-17.88-3.45-26.77s12.02-10.21,0-15.22c-.76-.32-.78-1.23-.48-2.42.56-2.21-3.47-1.64-.98-5.76,4.73-7.85-2.42-17.67-2-25.16.25-4.48-3.23-.47-4.61-4.18-1.15-3.11-.58-1.85,2.31-1.31,10.69,2-2.8-9.62-4.61-12.93-4.71-8.61-16.63-22.96,1.15-21.26,7.62.73,15.04-8.68,23.05-7.36,2.95.49,6.43,3.48,9.22.14,6.52-7.81,5.1,15.44,9.46,6.37,3.93-8.17,14.33-4.43,20.5-2.25,12.08,4.27,5.64,5.25,14.98-4.6,5.23-5.51,5.31-7.63,1.79-11.6-6.19-6.98-6.37-13.61-1.79-21.51,4.02-6.93,4.53-6.77,8.45-3.84,16.14,12.05,5.69-22,12.94-11.53,12.22,17.67,6.98,3.7,14.34,6.31,12.8,4.54,1.86,9.2-4.61,12.49-1.56.79-4.03,1.37-2.07,4.25,11.9,17.56,10.33.07,35.49,4.47,6.97,1.22,21.82,7.57,18.08,16.27-1.91,4.44-5.51,9.3-10.01,12.39-3.51,2.41-10.05,1.67-11.53,4.13-15.05,24.91,33.14,21,48.4,41.65,3.18,4.29-6.27,9.05-8.07,11.78-8.57,13.04-15.66,3.19-29.96,15.66-14.55,12.69-5.38,35.73,13.83,19.74,7.3-6.08,10.54-.11,14.98,6.07,6.61,9.19,16.61,11.86,24.2,18.58,9.67,8.55,18.32-6.51,29.96-8.46,11.83-1.98,12.86,20.09,19.48,29.44,3.29,4.66-1.45,13.55,3.34,18.44,11.72,11.96,20.34-21.87,11.75-30.08-18.96-18.12-45.89-59.42,2.31-49.23,11.29,2.39,3.87-6.51,4.36-11.73.82-8.78-7.81-14.73-1.36-23.05,4.2-5.41,5.68-10.71,14.28-10.33,17.02.74,54.44,36.14,30.58-8.11-9.21-17.09-31.35-30.15-26.91-51.86,3.66-17.89,43.69-1.09,58.55-2.56,27.67-2.72-18.85-35.14,4.61-39.15,19.65-3.36,27.39,55.14,42.95,15.2,5.6-14.38,11.64-26.5,19.56-40.34,14.41-25.2,8.61,6.88,23.06-5.76,44.37-38.8.05-21.55,49.27-80.31,8.47-10.11,14.12,14.18,20.74-2.47,2.79-7.02,15.42-7.69,16.52-4.8,2.14,5.6-1.82,5.54-5.38,9.22-2.26,2.34,1.32,2.35-.77,5.57-2.55,3.94,1.4,14.01,2.19,18.63ZM1446.46,422.91c-2.58.4-1.88-4.79,0-5.45,2.98-1.06,2.09,5.13,0,5.45ZM660.51,884.13c-.98,1.25-2.3-.07-1.54-1.21.66-.98,2.31.22,1.54,1.21ZM597.13,897.13c-3.4,1.66.48-4.04.77-1.54.04.38-.38,1.35-.77,1.54ZM156.9,911.35c-.46-.1-.46-1.43,0-1.54.95-.21.95,1.75,0,1.54ZM-354.77,925.09c-2.09,1.19-2.12-2.57-2.57-4.14-2.85-10.01,11.56-.99,2.57,4.14Z"/>
      <path id="path1" data-name="path" class="st24" d="M-159.43,430.02c-.1-.69-1.41-1.88-2.06-1.15-1.18,1.33,2.28,2.71,2.06,1.15ZM-145.85,447.31c18.63-15.72-19.03-44.67-22-31.12-1.62,7.4,17.01,13.74,8.99,21.1-3.88,3.56,8.5,13.81,13.01,10.02ZM-148.49,430.6c-.56.23-2.02-.23-1.15-.91.73-.57,2.58.32,1.15.91ZM-291.96,472.66c.07-.73-1.22-.73-1.15,0,.05.48,1.11.48,1.15,0ZM1260.34,508.38c0-.73-1.15-.73-1.15,0s1.15.73,1.15,0ZM-272.03,657.05c0-.92-1.32-1.35-1.32,0s1.32.92,1.32,0ZM-268.91,661.66c2.93-2.35-.42-4.64-2.16-2.3-1,1.34.46,3.67,2.16,2.3ZM-263.59,718.12c-.06-.32-.09-.02-.14.24,0,0,.16-.17.14-.24ZM-255.36,728.5c10.44-1.92,10.4-11.26-1.45-8.34-13.28,3.27-4.99,9.52,1.45,8.34ZM-450.22,824.15c9.61-8.68-10.06-24.58-11.17-39.18-.81-10.7,4.37-18.59.6-30.08-5.3-16.16-6.93-25.7-9.22-42.59-.8-5.94-13.73-15.01-6.92-17.95,9.94-4.29,30.05-25.85,5.76-19.9-3.54.87-11.23,2.13-9.04-2.41,5.65-11.71-2.08-8.9-10.55-13.48-17.52-9.47,15.02-12.74,9.22-24.48-6.54-13.25,15.48,8.04-3.46-24.85-6.37-11.06-10.73,3.35-13.83,3.1-2.91-.23-2.22,1.61-3.71,3.24-4.96,5.45-.68,19.51,2.55,26.18,10.47,21.64-12.79-4.91-2.3,23.66,1.54,4.19-4.62,4.58-2.12,12.39,12.31,38.53-46.72,54.37-5.09,93.34,8.18,7.66,15.63,14.19,23.34,22.82,11.31,12.65.2,7.48,12.68,21.9,5.56,6.42,17.84,13.18,23.25,8.29ZM-491.85,866.79c18.6-4.5-5.17-25.84-15.04-15.68-1.13,1.16-8.74.58-4.61,3.47s8.21,4.38,11.52,7.79-2.24,6.92,8.12,4.42ZM124.87,915.19c2-.98-3.5-8.82-4.84-8.88-3.44-.17,3.21,9.68,4.84,8.88ZM331.49,925.56c9.09-4.29,7.57-14.06-4.03-8.32-5.64,2.79-.23,10.33,4.03,8.32ZM959.16,934.78c.03-.31-.43-.26-.41,0,.02.17.39.2.41,0ZM-497.09,950.91c.56-3.09-10.31-1.11-7.49.58,2.02,1.21,7.08,1.71,7.49-.58ZM-348.61,950.91c13.29-14.73-29.26-35.91-35.64-56.47-2.73-8.8-16.67-6.55-21.22-15.05-3.09-5.76-7.25-5.79-12.68-5.34-13.16,1.1-10.6-13.04-11.78-22.25-.88-6.89,7.92-7.17-2.05-13.6-10.84-6.99-10.56,17.27-23.05,16.7-10.31-.47-32.98,6.33-19.59,18.48,25.11,22.77-17.67,50.09-6.91,76.68,8.18,20.22,110.78,25.41,132.93.85ZM-308.59,950.91c8.98-15.82-32.99-3.73-16.22.58,4.91,1.26,14.06,3.23,16.22-.58ZM201.52,222.58c24.76-8.22,19.77,4.66,22.04,18.44,2.3,13.92,15.33,12.24,28.76,13.83,3.15.37,4.5-.94,8.3,1.08,2.67,1.42,6.52,6.52,7.74,9.29,2.59,5.91,2.02,2.85,1.48,6.34-1.15,7.47-5.77-.57-13.54,8.64-1.92,2.28-7.47,6.24-7.56,9.22-.43,13.28,1.59,5,5.1,9.22,3.54,4.25,9.61,2.62,2.03,5.76-12.45,5.16-.45,4.26-9.08,11.76-13.14,11.41,2.57,13.44-14.98,27.71-11.62,9.45-21.65,5.9-25.87,22.76-1.12,4.45-3.37,3.03-5.52,5.76-5.15,6.53-8.49,17.56-18.16,17.57-9.31.01-3.88,8.59-14.98,12.46-16.09,5.62-8.29,18.67,2.31,23.84,25.35,12.36,32.42,29.39,32.61,52.15.05,6.01-11.14,12.77-15.81,17.28-10,9.67-33.19-4.62-43.31,5.68-8.23,8.38-19.75-2.59-28.81,1.75-12.4,5.94-30.01,13.35-31.12,26.7-2.31,27.86,85.91-3.85,55.31,38.15-9.36,12.85-3.62,8.79-9.21,18.69-1.84,3.26-5.86,9.62-9.22,10.31-10.4,2.13,9.49,24.98-8.07,14.76-8.33-4.85-8.64-1.67-2.76,4.96,6.96,7.86-.79,7.1,2.36,14.98,3.04,7.61,3.53,12.76,2.33,19.59-2.47,14.03,50.26,3.5,22.8,18.44-24.2,13.17,3.7,36.65-30.5,42.04-8.3,1.31-41.82,2.03-44-7.46-5.2-22.54-24.75,2.26-24.36,13.82.51,15,8.59,4.82,11.35,9.22,9.4,14.95,27.89,33.69,7.45,46.86-6.02,3.88-21.12,11.67-16.97,16.52,11.07,12.96,10.23,17.87,12.76,29.97,3.03,14.47.97,47.71-16.16,27.66-6.16-7.21-9.13-10.83-16.5-15.33-8.06-4.91-10.42-12.13-19.59-14.93-5.74-1.76-1.49,8.45-4.61,10.43-9.67,6.13-23.6,8.43-12.67,20.19,4.76,5.12,9.48,4.8,15.84,7.7,18.6,8.47-17.92,19.75-15.11,28.81,5.52,17.79,2.63,21.83,11.94,34.26,8.24,11,6.83.61,17.29-2.04,6.42-1.62,11.73,10.54,14.31,1.2,2.07-7.5,7.35-10.06,13.51-5.76,10.84,7.56,15.45,20.67,28.65,34.05,6.37,6.46,20.37,8.23,26.5,4.56,3.23-1.93-5.15-9.9-5.76-14.16-1.42-9.88,1.21-10.01,5.1-19.84,1.53-3.86.69-9.89,2.97-13.43,6.38-9.89,27.89,4.91,16.05-7.31-1.99-2.06-2.57-10.76-.49-10.37,5.56,1.05,14.97-6.5,17.86-13.47,7.13-17.17,12.73-37.72,29.96-27.66,10.09,5.89,27.4,17.62,27.15,33.06-.1,6.05-6.47,18.2-.65,17.66,5.12-.48,5.45,1.21,4.39,4.24-2.89,8.28,10.3,13.99,6.23,1.15-.68-2.15.88-4.69.38-6.91-5.01-21.99,11.33-25.16-1.78-27.46-2.86-.5-2.03,1.44-3.69-3.66-5.33-16.36-9.49-35.36-16.82-51.86-4.99-11.23-9.11-11.67-17.52-19.37-6.09-5.57-10.15,6.5-14.62-1.37-8.01-14.1,9.4-15.25,19.23-13.12,16.34,3.54,17.22-15.14,29.96-16.38,15.22-1.49,17.61-1.37,25.16-14.29,12.55-21.5,28.42-39.44,38.22-62.94,7.89-18.91-3.15,8.83,18.44,5.65,6.26-.92,4.62-6.4,10.04-8.39,8.75-3.22,3.32,1.42,4.93,6.33,8.09,24.55,4.12,45.35,6.52,62.81,3.53,25.72-32.75,7.77.29,49.56,15.51,19.62,86.23,39.59,56.58,55.12-17.17,8.99-3.1,19.03-9.22,28.33-2.09,3.18-2.03,3.57-1.29,6.43.77,3,.32,4.8,2.44,8.73,8.54,15.86.82,3.15,12.67,1.32,7.98-1.23,9.33,13.48,18.78,11.84,7.83-1.36,9.6-25.27,4.27-30.05-8.86-7.94-3.31-7.01-5.84-14.9-3.32-10.32-6.47-7.67-.36-17.29,12.48-19.64-17.31-29.32,1.59-52.57,31.42-38.64-15.11-56.02,19.59-60.2,51.26-6.16,32.77-1.01,66.84.29,25.28.96,1.46,12.21,34.58,26.76,18.53,8.14,7.87,24.48,13.82,35.3,5.03,9.14,19.19,2.59,13.11,20.46-4.59,13.5-18.1,21.46-24.33,34.57-9.54,20.06-5.43,46.51,10.06,62.81,15.26,16.05,6.5-25.38,26.11-35.15,9.28-4.62-4.17-7.05-1.68-12.68,3.2-7.25,14.98-4.79,21.67-9.27,7.04-4.7,15.55-12.52,22.5-16.09,18.4-9.45,1.3-19.18,9.77-31.91,3.42-5.15-5.89-13.34-10.02-17.65-11.42-11.88,13.49-24.96,27.73-34.58,13.36-9.02,24.45-21.56,38.77-19.01,19.21,3.42,28.86-5.76,43.22,10.95,1.31,1.52,3.98,1.29,5.19,3.01,3.07,4.4-4.98,2.07,1.27,7.36,6.15,5.2,6.31,11.8,12.2,16.13,19.26,14.16,22.02,22.87,19.26,47.25-.66,5.85-4.23,10.7-9.99,13.83-15.6,8.46-5.69,18.05-23.77,28.81-14.44,8.59-7.31,28.44-20.85,34.51-5.8,2.6-4.77,3.79-9.11,8.13-16.67,16.68,1.19,11.9,2.56,36.88.81,14.8,66.48-.75,90.67,4.04,41.95,8.3,32.09-10.71,59.93-32.16,7.81-6.01-.53-14.99-2.97-24.89-3.11-12.64,11.02-5.24,12.76-11.52,2.54-9.13-20.87-5.63-27.18-11.53-20.08-18.78,3.82-9.65,10.14-36.88,3.94-16.95,29.29,2.81,44.94-2.3,7.49-2.45,10.11,10.98,16.46,13.1,8.58,2.85,8.37,18.76,18.21,13.41,4.67-2.54,8.87-5.6,13.57-11.52,1.87-2.36,9.51-3.24,11.12-1.15,3.87,4.99,7.26,10.99,4.78,17.29-.82,2.08-4.53,4.95-1.59,6.08,7.65,2.94,5.4,14.84,12.67,14.23,8.56-.73,8.41,13.64,13.6,17.72,3.67,2.89-1.2,8.07,1.38,9.55,6.55,3.75,11.14,10.08,15.74,18.11,5.16,9.02-15.11,18.23-12.6,21.89,127.13,185.46,546.32,155.61,700.41,0,77.75-78.52-8.29-237.12.02-350.33,1.65-22.44,1.29-26.57-23.29-46.09-42.75-33.95,33.58-77.45-42.42-64.53-35.49,6.03-68.35-3.74-104.29.95-19.3,2.52-33.96.28-51.72-5.56-2.19-.72-5.92,3.32-7.87,1.15-1.19-1.31,1.3-4.09-.33-5.43-8.44-6.93-20.99-8.63-32.27-8.62-28.52,0-45.4-27.23-71.01-22.83-10.7,1.84-1.32,87.83-22.92,58.78-1.65-2.22-9.58-7.58-13.02-2.31-1.34,2.06-4.91,1.21-6.81,4.61-3.06,5.45-8.61-2.39-13.01,1.97-2.88,2.86-2.43-3.57-4.61-4.46-4.29-1.74-5.44-5.24-9.22-5.91-5.19-.93.64-2.34-6.91-7.41-22.88-15.35,14.41-53.27,16.38-83.3.43-6.55-11.71.99-15.23.19-4.92-1.11-8.75-5.5-13.83-4.61-11.01,1.93-19.35.28-28.81,5.88-10.82,6.41-24,9.03-31.69,18.12-1.74,2.05-12.91-.04-9.79-5.18,2.61-4.31,7.75-6.71,9.22-11.53,1.86-6.09-22.89,11.19-25.02,5.19-1.52-4.29,4-1.25,1.64-6.91-.48-1.16-1.97-1.28-2.21-2.3-2.1-9-12.84,6.27-19.69-1.15-9.49-10.3,7.38-11.89,5.27-19.59-2.46-8.95-11.88,4.84-16.46,9.55-4.69,4.82-8.31,5.78-5.18-3.79,2.61-8.01.66-13.98,4.85-20.74,4.15-6.69,8.44-15.05.32-12.91-4.12,1.09-6.54,2.36-10.37,3.8-2.31.87-4.47,5.79-5.76,2.77-24.58-57.65,39.3,3.74,29.04-37.45-2.52-10.12,1.26-4.85,4.38-11.2,2.39-4.87,10.26,7.2,14.16-.33,8.7-16.8,38.93-9.4,56.13-18.51,16.95-8.96-.56-47.68-3.09-65.62-1.19-8.41,9.36,2.81,15.77-.93,9.98-5.82-1.75,3.16,14.4-5.99,23.44-13.28,14.29,69.41,45.52,67.92,17.88-.85,45.43-.67,53.13,15.05,4.84,9.88,8.1,15.51,20.62,16.62,20.6,1.83,34.16.23,48.98-6.25,8.38-3.66,7.34,7.03,15.56,7.74,10.03.86,20.18-.52,29.73,4.94,30.33,17.36,56.91,22.22,82.05-12.32,2.49-3.43,4.1,2.84,6.92,2.13,4.22-1.07,6.83-1.41,10.7-.18,10.31,3.27,13.32-7.47,19.26-6.81,4.65.52,6.87,9.18,11.53,9.52s2.75-8.05,5.57-10.77c4.47-4.31,6.73,3.62,11.39,5.76,8.43,3.87,13.37,1.65,22.22,2.88,113.72,15.82,88.03-453.56,41.52-501.29C1379.13-451.64-1008.93-304.35-555.32,69.74c12.35,10.19,9.57,20.17,15.15,30.69,1.41,2.66-4.73.4-5.23,2.3-3.19,12-9.1,20.32-12.2,32.96-3.24,13.23-15.27,17.54-19.01,29.27-8.28,25.94-14.72,144.09,6.32,144.42,10.8.17-.38,22.34,10.39,20.55,18.93-3.15,41.33,3.4,62.23,7.06,22.01,3.86,28.25-13.31,39.18-.81,5,5.71,12.11-5.99,17.29-7.14,15.55-3.46,1.89,32.28,16.13,21.12,5.59-4.38,4.66-4.11,8.07.91,10.14,14.91-4.61,10.32,14.98,3.01,5.24-1.95,3.89,4.96,3.22,9.08-1.65,10.28,4.92,5.83-4.38,20.63-10.06,16-26.3,18.66-31.12,35.95-3.16,11.33-16.25,4.38-24.2,3.44-3.32-.39-5.26-5.09-11.53-3.71-46.24,10.14-18.13,3.7-71.45,9.75-6.67.76-6.71-4.73-10.64-8.44-5.64-5.33-21.58-13.83-24.51-6.92-8.38,19.77-29.4,103.25,13.25,82.12,4.62-2.29,8.39,4.09,13.83.07,6.38-4.71,8.72,10.15,13.83,11.03,4.48.77,5.14,1.99,9.22,3.73,14.04,5.97-.83,15.54,5.76,26.73,9.66,16.4-6.37,34.46,3.65,49.19,5.97,8.78,11.84,24.2,26.31,9.79,6.35-6.31-2.13-9.08,10.37-8.45,8.12.41,16.54-1.05,24.2.78,5.19,1.24,7.41,2.29,12.76,3.64,8.38,2.11,10.88,13.42,18.35,17.99,8.09,4.95-3.93-15.23-4.24-20.29-.87-14.45-7.28-13.4,5.4-28.45,11.96-14.19,14.98-12.18,28.67-9.58,7.8,1.48,15.69,1.6,23.18,3.29,8.08,1.82,3.14,10.34,8.07,10.29,7.36-.08,12.9-7.9,23.05-3.83,12.11,4.85,7.46,3.49,13.14,9.85,8.55,9.57-4.85,18.7,15.35,18.43,15.58-.2,26.94,17.7,36.05,29.41,8.47,10.9-9.03,29.95,3.69,36.28,7.46,3.71,5.42,8.24,14.75,10.2,18.33,3.83,30.63,29.24,13.12,46.27-6.76,6.58,9.27,1.5,10.84-2.3.8-1.93,3.84-.72,6-.67,10.74.24,8.58,6.14,21.56,2.97,19.29-4.71,15.39-21.73,14.93-34.57-1.05-29.41,35.13-19.73,24.59-28.75-20.01-17.12-24.93-52.71,9.89-49.61,18.62,1.66,18.2,2.33,36.21-6.88,4.72-2.41-20.36-8.72-23.05-10.4-5.92-3.7-5.02-4.3-9.22-9.16-8.33-9.63.6-18.96,9.54-21.96,14.16-4.77,31.77,2.01,44.63,9.17,14.15,7.88,21.14-17.31,9.22-25.02-17.63-11.41-35.1-11.78-53.01-7.44-23.62,5.71-50.71,12.9-72.6,7.54-14.7-3.6-13.27-5.08-33.42-6.65-4.68-.37-7.26-3.24-12.68-.67-4.95,2.34-2.96-9.14-5.76-12.41-10.64-12.4-23.62-22.45-31.12-36.52-2.55-4.77,4.14-8.26,6.34-12.1,1.7-2.97-3.85-2.22-2.31-4.61,2.97-4.59-4.51-11.73,1.73-13.25,11.68-2.85,18.89,10.23,35.72,6.91,5.45-1.07,2.65,7.16,8.07-.25,12.96-17.74,15.11,12.5,1.97-25.68-1.2-3.49,4.23-4.51,8.4-3.28,22.08,6.54,46.41-.64,61.08,17.94,6.64,8.41,6.3,2.72,10.01,8.38,4.29,6.55,1.32-.7-.22-3.46-5.49-9.85-17.85-14.25-21.32-23.97-4.02-11.24,19.3-3.15,16.05-20.98-2.02-11.08-22.17-22.16-13.88-28.81,9.57-7.67-.68-5.03,10.51-7.84,49.35-12.36,22.62-53.39,62.23-37.6,11.32,4.51,7.64-12.73,8.89-5.27.76,4.52,4.55,10.66,7.24,5.99,6.36-11.02,3.94-8.61,7.24,2.08,3.1,10.02,5.29-17.87,13.5-13.01,3.17,1.88,5.69,2.55,5.66,7.24-.11,18,.31-24.1,15.08-6.63,6.24,7.38,4.47,24.29,13.25,20.46,5.61-2.44,20.23.55,16.71,4.49-12.61,14.15,27.94-.81,19.49,19.71-4.22,10.24-5.36,19.88-16.85,24.2-6.22,2.34-10.89,9.31-2.41,6.92,10.52-2.97,3.69,4.75,10.14,6.47,3.51.94,9.5,5.62,11.24,2.75,4.23-6.98,5.47,18.59,26.79-.67,4.73-4.28,9.66-8.67,14.98-12.3,33.4-22.76-15.48-87.23,27.66-83.01,13.65,1.34,19.93,29,23.37,34.9,4.4,7.55,11.45-13.21,14.31-17.29,4.46-6.38,11.24-8.93,12.95-18.44,1.17-6.46,3.61-3.41,9.3-1.23,19.32,7.42,23.59-22.58,35.72-33.74,5.01-4.61,15.04-14.26,18.08-20.35,4.22-8.43-2.91-17.29,3.43-24.27,3.5-3.85,14.71-5.21,19.65-6.85ZM-555.29,322.02c-3.88.68-5.11-5.46-1.15-6.32s5.22,5.6,1.15,6.32ZM1343.89,487.78c-2.8.99-2.31-2.68-2.47-4.75-.77-10.06,13.08.98,2.47,4.75ZM1266.68,527.05c-4.49,1.84.92-6.02.23-1.38-.03.21.02,1.28-.23,1.38Z"/>
      <path id="path2" data-name="path" class="st1" d="M-182.67,236.41c0-.49-.77-.49-.77,0s.77.49.77,0ZM1635.07,257.16c.04-.34-1.11-.66-.95,0,.05.18.93.15.95,0ZM-563.99,472.66c11.59-2,2.61-19.76,13.31-25.52,4.28-2.3-24.4-26-25.93-22.89-7.62,15.53-6.45,51.7,12.62,48.4ZM1166.8,503.77c11.98-5.92,16.35-25.22,30.73-28.21,11.16-2.32,40.53-56.71,23.05-35.43-32.04,39-36.03,1.12-44.95,22.64-6.08,14.68-10.47,3.73-2.89,16.8,3.62,6.25-17.46,29.89-5.94,24.2ZM-127.91,538.35c2.93-.19,7.39-6.31,2.47-5.48-3.67.62-11.63,6.07-2.47,5.48ZM1355.54,637.46c.05-.19.06-.71-.12-.77-.42-.13-.11,1.55.12.77ZM177.65,733.87c7.07,1.31,11.86,5.54,18.32,3.84,15.17-3.98,3.39-23.52-5.65-27.87-6.53-3.14-17.22-.15-24.2-9.75-11.48-15.77,32.72-31.54-4.43-25.77-19.17,2.98-28.45,13.84-26.84,33.42.78,9.5-26.11,10.84-11.37,19.06,12.33,6.87,22.02-9.39,32.27-1.37,4.03,3.16,5.58,1.15,10.37,2.56,3.1.92,8.34,5.28,11.52,5.87ZM-478.43,775.74c10.79-1.82,12.13-17.87.41-26.5-8.46-6.23-6.47,4.03-8.12.77-22.04-43.49-74.73,39.67,7.71,25.73ZM161.77,832.21c5.41-.04,1.23-10.86.26-14.98-.79-3.36-2.77-3.03-5.13-5.38-10.02-10.02-20.44-2.32-33.42-10.57-11.27-7.16-6.2-25.57-16.13-32.34-24.04-16.39,28.91-46.12-5.76-44.87-60.42,2.18-25.27-2.55-28.81,35.28-1.45,15.54-32.53,30.89-10.38,38.17,2.49.82,5.99-.9,8.19,1.27,6.85,6.76,9.32-10.78,26.38-7.71,10.31,1.85,7.77,13.85,14.86,16.93,16.47,7.15,32.51,24.34,49.93,24.2ZM59.33,904.82c4.26-3.08,9.6-15.53,6.11-20.74-4.39-6.55-6.2-15.56-14.56-16.01-8.55-.46-1.42,10.83-12.68,9.84-6.56-.58-13.94,1.97-18.49,7.32-14.38,16.91,9.16,5.93,19.64,4.66,8.71-1.06,13.87,19.34,19.98,14.93ZM64.1,911.73c.74-2.23-3.62.7-1.69,1.06.45.08,1.55-.63,1.69-1.06ZM66.62,919.8c1.97-2.92-1.35-8.92-3.85-4.61-1.06,1.83,1.79,7.67,3.85,4.61ZM-373.44,950.91c26.75-10.49.25-29.96-13.6-36.5-7.91-3.74-1.56-4.32-2.01-10.75-.68-9.68-11.16-8.06-17.58-11.69-7.69-4.34-12.53-3.9-20.63-6.75-18.43-6.49-19.12-9.72-18.75,8.07.25,11.67,14.27,27.5-3.27,32.62-10.76,3.14-6.24,24.4,0,25.58,24.72,4.69,52.66,8.51,75.83-.58ZM917.5,538.5c-20-5-29.95-25.84-22.25-33.57,8.54-8.58,27.11-4.8,32.92-24.21,2.56-8.56-9.44-13.85-2.39-20.74,8.44-8.25,9.44-17.79,9.7-32.27.25-13.43-6-10.59-3.81-23.05,2.3-13.09,16.96-19.99,22.24-33.42,4.09-10.41,10.76-2.77,20.06-8.92,19.63-13,45.11,3.11,67.99,5.11,5.16.45,6.39-4,8.06-7.95,9.2-21.71,22.24-14.87-2.7-34.33-4.92-3.84-12.86,4.34-16.96-4.61-5.38-11.75-2.93-22.16,1.19-34.57,2.23-6.73-4.5-14.53,2.34-21.45,8.28-8.37,9.12-27.14,20.74-32.49,22.28-10.25,16.36-29.22,32.27-21.18,20.17,10.19,25.54,85.85,54.16,31.71,4.18-7.9,19.91,4.54,24.55,13.44,1.4,2.69,6.14,4.74,8.88,3.6,6.8-2.83-1.2-16.7-3.94-23.19-10.51-24.93-31.84-12.01-40.88-34.57-.94-2.35-7.88-7.97-1.27-6.69,14.79,2.86-4.64-19.93,8.07-24.99,10.97-4.37,22.75-7.07,29.96-15.74,4.41-5.3-2.06-8.72,5.76-15.58,1.93-1.69,1.95-3.26,5.76-2.85,27.55,2.94,49.16,21.83,59.93,39.8,6.77,11.3,10.49,25.38,14.22,38.73,3.19,11.41,9.88-13.37,16.12-5.76,11.36,13.84-8.97,67.11,22.67,52.51,14.98-6.91,55.74,12.81,53-5.25-3.53-23.27-50.44-63.32-26.5-77.68,49.43-29.65,45.78,94.28,78.82,47.71,4.09-5.76,11.68-14.16,18.76-8.07,4.05,3.48,8.58-5.76,11.14-2.31,9.74,13.17-36.6,45.35-27.96,61.08,13.23,24.08,28.48,5.2,42.55,14.69,13.15,8.88,33.65,39.13,47.25,26.45,18.45-17.2-14.23-46.66,12.67-69.26,17.1-14.37,24.89,16.57,32.12,23.51,15.38,14.74-6.46-68.38,14.36-54.16,34.48,23.54,3.5,13.55,53.78-18.68,6.76-4.33,19.09-6.09,22.66.25,8.6,15.23-15.3,39.57-24.25,57.62-7.23,14.59,28.55,67.25,22.3,34.58-2.69-14.04,16.48-23.12,11.87-33.42-2.38-5.32,3.5-5.29,1.99-7.68-.72-1.14-2.11-1.49-1.15-2.51,5.49-5.87,4.04-13,4.86-19.77,15.56-127.68,95.99-316.77,5.52-405.07-294.64-287.56-836.56-6-1256.15,0-22.09.32-24.47-7.16-6.91,13.99,18.44,22.21,31.35,67.61,29.59,94.91-.93,14.39-17.56,11.15-24.21,6.92-4.32-2.75-5.12-10.97-11.53-8.07-1.74.79-.37,1.8-.38,3.46-.03,4.02-2.33-1.84-6.15.17-3.81,2,.3-6.43-6.92-7.47-13.33-1.91-7.98-33.14-25.68-42.25-19.93-10.26-41.65-42.91-65.66-21.91-18.49,16.17-6.29,23.11-38.34,25.36-19.85,1.39-38.65,16.3-51.25,31.42-7.94,9.53.89,20.21-17.29,17-32.22-5.68-65.95,30.2-88.35,42.61-10.21,5.66-10.3,10.56-17.83-4.61-1.34-2.71-5.04.1-7.9-.38-2.29-.39-3.69-2.97-5.76-1.15-10.62,9.32-1.81-12.06-5.76-10.98-2.01.55-1.52,4.38-3.46,5.98-7.65,6.3-28.34,13.31-38.03,11.21-6.45-1.4-10.8-1.91-17.29-2.99-3.51-.59-7.17,5.14-10.37,1.38-1.58-1.85-3.63.21-5.65,1.54-1.79,1.18-9.48-2.63-8.35-4.61,1.41-2.46,3.6,2.34,5.93,1.84,3.5-.74,5.42-2.55,9.22-3.76,2.12-.67,2.86-3.86,5.76-2.31,4.69,2.51,1.13-3.65,2.69-6.15,1.21-1.93-2.49-1.97-1.54-2.69,21.99-16.57-10.26-10.9-7.89-16.9,3.46-8.74-2.85-7.95,10.19-11.91,3.48-1.06,1.75,1.92,3.08-.77,3.29-6.69,21.93.67,21.82-4.61-.08-3.71-1.11-3.97,1.62-7.57,4.27-5.67-18.9,1.8-24.2-.04-9.83-3.41,11.44-3.23,14.98-8.91,16.06-25.79,63.22-16.72,82.97-44.63,6.32-8.92,100.35-44.87,63.39-43.15-238.54,11.12-545.9-160.99-719.11,0-39.98,37.16-21.42,123.06.4,175.75,6.32,15.25,6.02,22.28,4.38,35.73-2.17,17.82-2.85,20.44,11.36,22.4,85.34,11.76-7.34,119.69-16.72,147-23.65,68.91,16.51,13.47,38.88,61.08,4.3,9.15,9.64,20.99,15.32,32.27s-4.56,6.94.54,10.27c5.23,3.41,12.78,1.25,19.59,1.22,6.13-.03,8.58,8.75,12.68,3.97,4.73-5.51,17.36-5.74,16.85-14.31-.96-16.21-16.49-25.36-26.07-37.28-.54-.67-2.93-.64-2.55-1.9,1.14-3.74-2.8-2.19-3.84-3.46-2.16-2.64.87-5.11,2.93-7.08,3.14-2.99-.86-10.26,5.76-2.91,3.59,3.98,3.61-5.33,3.84-8.45.52-6.91,6.61-7.44,9.99-12.29,1.76-2.53,4.04,1.46,5.76,0,.94-.79.78-4.45,2.3-3.46,7.71,5.03,17.7,8.98,25.35,13.5,22.12,13.06,26.48-1.48,24.8-17.34-.34-3.19,3.59-1.43,3.62-3.46.1-6.46-1.34-12.81-.77-18.9.74-7.93,16.27-4.85,15.68-9.91-.83-7.02,2.68-5.74,5.07-8.16,2-2.03,5.47,5.12,6.91.86,5-14.7-1.16-14.79,13.83-18.44,3.81-.93-1.65,6.43,6.91,5.09,7.18-1.13-2.73-10.17,9.22-8.83,3.73.42,8.94-3.3,6.92.83-3.11,6.34,3.02,9.12,4.22,13.66,1.44,5.46,4.68,5.14,7.2,9.22,8.66,14.02-10.88,3.53.02,21.9,20.13,33.92-8.38,57.81-18.36,113.63-1.63,9.13-1.7,15.01-3.43,24.66-2.64,14.69,6.6,15.61-1.06,31.11-5.54,11.21-2.32,29.6-12.8,34.46-7.81,3.62-12.41,12.49-23.05,8-.57-.24-1.73,1.61-1.15,2.1,2.45,2.09-.57.06-1.26,1.54-1.44,3.05-6.56,3.28-9.11,4.86-19.91,12.32-41.63,27.59-63.38,43.02-20.04,14.22-27.98,11.47-29.16,50.08-.36,11.75,3.15,25.12.05,36.88-2.44,9.26,3.21,26.62,14.13,20.95,3.91-2.03,30.7-9.59,16.13-14.76-10.39-3.68-7.74-18.62-16.14-27.69-8.48-9.17-27.14-34.58,2.31-25.28,2.72.86,2.27-5.83,4.61-7.5,4.2-3.01-.9-3.65.99-5.65s4.54-4.45,8.07-3.46c22.08,6.18,44.55,2.56,53.18,23.71,11.01,26.99,39.78,2.68,55.32,17.15,8.14,7.58,16.05,11.32,26.5,11.2,32.38-.37,9.77,35.3,59.93,46.07,17.46,3.75,15.8,13.35,21.89,23.06,7.86,12.53.42,18.63,1.16,30.55.34,5.53,5.76,6.97,11.52,10.66s9.04,5.92,11.53,11.55c4.52,10.26,18.05,10.72,16.86,24.26-1.84,20.95,26.65-40.99,19.1-48.4-11.21-11-18.95-28.92-30.2-35.47-9.7-5.65-1.11-9.01,8.07-9.19,2.94-.06,4.83,3.42,5.76,1.25,2.26-5.28,1.62-.25,4.61-1.7,1.2-.59,2.3,1.74,3.46.86,3.48-2.67-2.08-1.2-3.46-2.83-4.68-5.52,8.32-7.35,11.52-5.18,32.91,22.34,28.04-22.53,38.57-39.93,11.14-18.39-23.1.75-31.66-2.57-6.48-2.51-9.34,5.32-14.78,6.03-6.63.87-14.4-.41-20.94-2.64-36.23-12.33-6.06-16.65-39.18-4.43-5.34,1.97-7.04-8.22-8.11-12.53-4.21-16.9-28.96-24.64-40.91-38.03-8.92-9.99-22.14,3.11-31.64,1.64-11.3-1.75-23.06-1.53-30.84-8.56-7.57-6.84-14.6-9.85-17.56-20.92-15.07-56.32,27.28-34.77,55.55-49.37,31.37-16.21,1.31-77.76,19.71-110.63,12.48-22.29,2.95-5.81,18.08-8.18,3.85-.6,20.08-2.13,17.57,5.87-.95,3.02,3.91.93,4.71,5.76s1.26,7.47,3.24,11.53c9.85,20.2,20.96,43.52,33.26,63.93,5.68,9.42,13.85,12.84,23.04,18.64,10.63,6.71,14.19,9.41,20.74-.02,8.46-12.17-7.38-29.77-6.4-47.98.77-14.29,5.22-8.92,13.32-16.07,18.17-16.06-9.25-49.97,10.37-60.97,16.85-9.44-10.74-22.49,1.85-41.66,5.23-7.96.58-8.6,11.98-12.33,6.08-1.99,5.4-4.97,12.68-8.18,5.23-2.31,9.04-5.05,13.83-7.9,5.89-3.5-1.16-6.63,9.22-7.99,9.31-1.22,10.26,7.69,21.9,9.15,15.01,1.88,14.48,21.69,23.04,31.3,13.21,14.81,30.39,24.59,35.5,43.21,2.28,8.3-.09,14.85,2.93,21.9,5.05,11.77,8.49.27,19.85,4.61,16.75,6.41,29.6,5.83,39.27,19.59,4.83,6.88,6.95,3.09,7.75,13.83.28,3.7,2.52,1.5,4.18,3.69,1.13,1.49,5.32,4.73,3.86.92-7.83-20.47-8.35-45.06,4.81-62.23,12.68-16.55,27.7-8.52,44.69-3.45,8.48,2.53,12.11-13.56,20.4-3.95,6.08,7.04,7.08-6.42,7.51-11.03,1.29-13.87,15.83-24.41,23.6-35.89,6.18-9.12,16.77-11.99,24.33-19.43,5.61-5.52,3.01-19.19,10.25-21.84,5.57-2.04,7.58-7.02,12.68-9.15,17.76-7.42,26.87-7.52,39.18-21.68,2.93-3.37,2.99-3.47,6.91-.51,7.62,5.75,17.15-6.24,26.34-5.6,26.83,1.86,14.59,18.23,16.53,40.33.74,8.42-11.38,11.78-13.81,23.05-3.6,16.62,11.46,16.48,29.91,25.36,9.85,4.74,20.91,12.31,28.61,20.43,12.34,13.02,15.51,45.02,1.16,53.77-4.04,2.46-6.94-.68-11.04,4.16-4.99,5.89-5.5,9.43-9.36,14.98-1.06,1.52,3.12,3.18-.34,2.43s-7.03,2.44-10.37,3.37c-23.06,6.37-42.52,22.88-59.39,39.14-37.64,36.28-52.84,46.83-2.84,62.44,14.33,4.48,10.02-1.28,21.05,6.71,19,13.77-13.39,29.5-17.64,44.94-2.62,9.55-15.95,24.34-29.92,18.33-11.37-4.9-37.96-1.5-40.34,10.06-3.07,14.9,26.24,22.92,28.89,39.61,1.92,12.12-7.26,26.77-17.36,35.76-7.46,6.64-24.73,22.38-12.91,24.17,24.26,3.67,26.42,11.04,31.35,26.54,4.38,13.79-7.51,21.76,16.13,25.78,8.26,1.41,28.98.27,12.67-9.75-17.74-10.9,1.91-11.63,6.92-21.43,3.63-7.12-14.24-28.15,0-28.27,3.73-.03,7.91-3.74,7.8-6.71-.18-4.6,4.79-6.29,1.65-10.37-7.61-9.89,9.4-3.55,15.9-4.7,34.75-6.15,11.81,19.58,23.05,26.32,10.63,6.37,1.1-14.26,1.15-18.93.2-17.52,26.75-17.3,41.78-9.6,8.6,4.41-2.85,8.82,5.65,17.29,7.74,7.71,14.09,10.3,15.34,21.9.51,4.71-4.86,2.04-.54,6.87,6.16,6.89,5.34,20.64,5.34,30.01,0,10.12-7.15,20.58,3.89,30.06,4.41,3.79,9.4,7.93,8.11,14.88-1.64,8.83,10.8,11.85,5.22,20.74-4.82,7.69-1.43,24.17-15.64,21.98-9.41-1.45-12.57,10.2-15.24,17.2-1.56,4.09-12.33,7.84-5.5,11.06,9.2,4.33,25.22,32.81,33.42,14.25,5.83-13.21,10.27-25.81,18.04-36.84,4.59-6.51-.07-8.84.71-17.29,4.07-44.32,25.97-38,56.16-37.42,30.27.58,64.57,12.62,89.51,25.9,8.26,4.39,5.24,15.68,8.89,24.2,4.59,10.71,13.5,20.6,17.14,31.11,6.48,18.71-2.08,64.9,11.22,59.32,17.61-7.39,16.02-22.63,20.26-38.57,2.18-8.2-7.86-6.66-12.18-9.27-13.96-8.4-14.83-21.26-2.59-31.07,7.45-5.97,16.1-5.89,24.48-14.25,5.5-5.48,18.2,5.07,22.96-5.34,6.86-14.99.58-19.04,12.76-22.65,29.36-8.7,61.58-13.34,89.89-1.66,12.99,5.36,11.55,27.01,22.14,35.83,15.64,13.03,19.33,27.63,23.95,46.05,4.15,16.55,10.86,19.96-3.23,34.62-13.08,13.6-14.86,33.15-27.83,46.1-61.21,61.14-65.44,13.1-41.54,66.26,10.83,24.07,53.93-.98,80.67,0,13.73.5,5.79,3.02,10.24-6.34,4.87-10.24,14.12-15.73,15.8-28.81,1.29-10.04,19.51-3.06,16.9-16.13-1.94-9.73-9.28-11.61-12.53-19.59-5.2-12.79-20.9-22.95-15.45-35.72,3.03-7.1,3.99-9.18,2.46-17.29-11.73-62.14,60.25-18.9,93.21-14.5,9.36,1.25,14.9,15.95,23.05,12.15,2.96-1.38.89,1.15,2.47,2.35,15.05,11.46,40.13,9.92,53.54-10.37,7.02-10.63,20.94-7.99,31.03-4.61,7.98,2.67,10.45,15.91,7.81,24.2-3.91,12.22,11.62,19.02,4.51,29.96-7.34,11.29-4.3,22.06-6.01,34.85-3.37,25.17-30.63,55.41-3.46,49.85,213.47-43.68,513.9,140.43,670.13-.57,77.36-69.82,66.31-276.53-5.17-336.11-16.23-13.53-14.57,44.88-36.89,49.9-5.07,1.14-3.26-6.77-6.91-6.05-14.12,2.8-11.51-32.7-8.76-43.1,5.95-22.51,10.85-46.13,14.23-69.15,1.64-11.16-6.61-6.47-.05-20.74,10.74-23.38-14.54-13.48-27.33-11.99-17.25,2-12.28,32.03-36.88,15.68-3.69-2.45-6.04-6.09-11.52-5.14-2.38.41-2.48-3.96-5.76-2.48-7.5,3.38-14.77-5.81-23.05-5.97-21.65-.41,11.13,24.48-12.68,27.3-13.42,1.59,5.79,8.25-5.76,13.33-8.78,3.86-8.78,4.92-12.68,11.3-7.43,12.16-19.44-10.3-18.08-.55,2.18,15.66,19.24,30.07,37.67,36.79,11.25,4.1-5.01,21.56-12.84,10.46-10.46-14.84-3.56,10.37-10.21,6.53-9.35-5.41-11.72,1.75-19.59,3.15-13.77,2.46-9.89-10.77-19.59-15.2-11.88-5.43-4.22,2.41-6.75,7.83-8.33,17.77-32.93,25.04-51.24,28.82-5.41,1.12-1.94-4.69-7.68,1.39-5.12,5.42-4.67-5.59-8.27-8.31-1.62-1.23,1.15-4.47,1.26-6.92.21-4.69-6.17-4.51-9.19-6.91-1.21-.96.06-3.95-1.48-4.61-5.64-2.42.26-9.29-3.07-12.56-4.88-4.79-5.95-8.53-8.73-15.1-3.59-8.48,16.2-15.42,17.78-24.2,1.92-10.69,35.32-64.04,1.31-58.21-33.97,5.82-12.53,8.38-23.05,25.35-16.06,25.92-50.59,65.12-78.37,47.08-5.33-3.46-14.1-3.19-21.89-3.49-6.54-.25-8.72,2.96-16.14,1.55-12.62-2.4-15.88-9.15-21.9-16.6-7.15-8.84-1.13-8.54-15.3-16.42-6.49-3.61-16.36-15.74-15.73-21.9.44-4.3,6.59-6.34,7.26-10.37,2.21-13.28-8.43,7.95-11.95,9.93-11.49,6.44-17.83,22.25-29.96,21.86-1.19-.04-2.42,2.18-2.9.48-6.7-23.78-36.08-8.43-52.42-2.45-5.26,1.92-9.19-8.41-16.38-9.07-14.05-1.28-18.12,2.84-27.44,7.45-10.9,5.39-13.71,15.89-23.03,19.89-3.83,1.64-13.02-6.38-25.97-4.89-26,3-34.49-14.37-57-20ZM-375.51,156.99c-1.9,1.63-3.62-1.12-5.76-1.08-1.46.03-2.99,2.77-3.84.99-4.77-9.97,16.09-5.47,9.6.09ZM-488.45,205.34c-2.85.08-3.64-5.55-1.15-6.21,2.34-.62,4.94,6.1,1.15,6.21ZM1168.72,910.67c-2.48.49-.57-2.86.84-3.55,2.2-1.09.27,3.33-.84,3.55Z"/>
      <path id="path3" data-name="path" class="st2" d="M-453.01-142.73c0-1.1-1.73-1.1-1.73,0s1.73,1.1,1.73,0ZM-466.84-135.82c.54-9.35,1.7-7.16,8.36-8.35,2.05-.37,4.11-1.02,4.44-3.17,1.01-6.56,2.05-1.51,9.38-9.38,9-9.66,27.98-3.38,41.49-10.01,13.55-6.65,32.58,6.01,44.95-2.62,2.79-1.95,7.65.42,11.52.21,36.51-2,19.15-19.08-31.11-7.58-22.48,5.15-171.78-6.15-150.51,6.32,3.9,2.29-2.04,4.42-.99,6.92,2.3,5.43-3.93-2.51,8.6,3.99,6.31,3.27,7.1-10.39,16.14-1.97,2.1,1.96,6.74-16.19,9.34-.87,1.26,7.43,4.2,1.68,8.61,10.37,2.16,4.25,8.14-6.69,6.54,3.46-1.28,8.17-.84-4.55,13.54-2.47,2.27.33,1.7,2.03.29,2.47-8.08,2.52-1.51,3.78-5.89,9.22-2.66,3.31,5.11,7.01,5.31,3.46ZM-487.3-162.03c-1.16-.02.04-2.2,1.15-1.6.56.3-.73,1.61-1.15,1.6ZM-457.99-128.9c1.08-1.52-1.34-2.32-2.14-1.15-1.13,1.65,1.11,2.6,2.14,1.15ZM-32.26-128.9c95.31-.44,64.36-57.2,86.29-38.03,11.21,9.8,28.39-1.09,30.47-9.21,21.51-83.91-233.8,22.61-324.03-.61-45.64-11.75,92.28,74.03,117.36,35.18,4-6.19,4.75-11.67,8.24-17.47,4.86-8.09-.28,1.05,9.22-3.99,13.96-7.41,13.19-5.97,15.93,6.48,5.53,25.12,36.05,27.75,56.51,27.66ZM-457.99-117.38c.28-1.41-2.48-1.15-2.51,0s2.29,1.12,2.51,0ZM-486.43-116.22c2.63-2.77-2.45-5.35-4.44-8.07-6.64-9.07-11.31,4.38-4.49,2.51,6.56-1.8,5.05,9.65,8.93,5.56ZM-560.78,221.43c1.83-.76-2.26-9.05-3.72-9.85-8-4.37,1.13,10.92,3.72,9.85ZM-527.36,250.24c-.15-.63-4.07.13-2.57.65.78.27,2.86.52,2.57-.65ZM1455.59,257.16c3.4-3.19-2.91-22.24-5.68-19.74-3.01,2.71-.27,25.32,5.68,19.74ZM-503.08,287.12c7.77-6.32-5.76-21.63-3.67-5.76.31,2.37.63,8.23,3.67,5.76ZM-348.61,391.99c1.55-.44.92-2.89-.4-3.01-1.71-.16-1.02,3.41.4,3.01ZM-355.58,395.45c4.73-1.55,4.86-7.09,4.46-11.52-1.64-18.1-18.34,16.08-4.46,11.52ZM-364.59,515.3c10.03-15.3-23.47-13.59-36.01-18.43-7.48-2.89,2.47-11.41-2.77-16.14-10.11-9.12-15.66-20.43-27.45-23.45-5.65-1.45-37.67,13.34-31.12,21.4,11.55,14.2,20.53,13.08,35.73,17.26,10.87,2.99,13.53,19.18,26,10.15,5.55-4.02,9.04,7.86,14.33,6.51,7.1-1.82,18.74,6.61,21.3,2.71ZM-363.81,517.6c.23-.72-.85-2.53-.86-1.15,0,.21.66,1.8.86,1.15ZM-293.59,563.7c14.48-4.02.77,9.55,15.73-3.46,11.15-9.69-23.28-19.31-34.27-27.04-16.91-11.88-17.68-33.87-35.73-25.38-6.7,3.15-7.05,13.62-1.72,17.85,3.45,2.74,12.34-2.3,19.01.26,17.62,6.77,16.07,43.58,36.98,37.77ZM-287.06,563.7c0,.17-1.1-.32-1,0,.03.09,1-.09,1,0ZM-191.29,574.07c14.15.66,10.28-27.94-9.89-18.44-12.91,6.08,6.59,18.28,9.89,18.44ZM181.19,594.82c-18,5.95-2.3,35.5,4.64,28.81,12.61-12.16,20.88-22.01,12.22-29.96-3.11-2.86-12.85-.17-16.86,1.15ZM1317.52,635.15c.7-1.52-1.8-.82-2.15,0-.29.69,1.84.67,2.15,0ZM-216.44,657.05c16.19-8.76-6.88-41.2-20.79-26.43-3.73,3.96-9.85-6.36-7.37,2.22,1.61,5.57,8.21,6.1,12.15,9.22,5.63,4.45,9.77,18.36,16,14.98ZM1647.55,704.3c14.52,1.04,9.88-50.84-1.13-54.17-21.61-6.54-17.3,52.84,1.13,54.17ZM-498.55,744.63c1.46-.99-.46-2.32-1.42-1.21s.38,1.91,1.42,1.21ZM-491.75,746.93c3.54-4.51-.88-3.84-2.96-2.3-1.45,1.07,1.57,4.08,2.96,2.3ZM-394.45,950.91c9.59-10.09,28.69-5.27,12.02-23.91-14.61-16.34-20.04-21.98-35.44-33.71-21.65-16.5-3.77,28.36-18.19,41.48-22.53,20.51,34.06,24.07,41.6,16.14ZM742.29,950.91c8.02-2.28,3.5-15.35,8.72-19.59,16.49-13.38,10.91-11.31,20.65-32.27,4.38-9.42-16.65-39.25-20.6-34.57-9.77,11.56-11.75,25.28-22.55,34.95-18.12,16.23-51.22,26.81-44.3,49.18,3.89,12.57,42.59,6.71,58.09,2.3ZM757.31,773.58c13.62,23.54,32.87-5.16,52.81,2.16,53.56,19.67,88.91,48.21,100.43,29.97,11.9-18.86,24.77-10.33,39.39-14.99,4.44-1.42,14.94-11.29,14.71,0-.11,5.28,9.9-5.97,14.36,1.15,30.53,48.74-27.53,104.34-4.19,157.87,20.6,47.26,116.27-.21,165.1-2.5,12.75-.6-2.02-14.79,9.23-23.53,15.97-12.41,24.17-38.49,12.67-55.18-15.36-22.3-14.62-8.57-11.52-32.01,1.6-12.13,16.2-66.3,30.62-45.81,2.12,3.01,5.99,1.42,8.07,3.46,6.62,6.46,14.36,7.72,22.39,9.43,7.29,1.55,7.51-10.18,13.83-3.95,7.73,7.63,11.32,13.04,23.05,17.49,9.65,3.66,5.56,20.47,12.75,28.89,22.76,26.66,3.67,22.94-2.57,51.86-7.72,35.79,52.71-3.69,49.75,14.32-1.92,11.68,16.79,5.24,16.49,15.64-.32,10.75,7.48,6.51,13.48,18.6,23.67,47.68,247.92,70.47,309.42,3.29,26.71-29.18.7-79.14,0-118.7-.23-12.88,10.64-33.14-.57-39.07-3.82-2.02-3.27,4.97-5.76,6-3.44,1.42-5.94-4.02-9.22-2.26-4.99,2.68-3.12-2.14-5.76-4.06-2.95-2.15-4.09-4.14-6.57-6.71-23.44-24.33-20.99-70.55-48.63-89.89-3.37-2.36-16.65,4.1-17.8-3.46-2.89-18.9,14.34-55.61-12.28-56.42-10.3-.31-17.39-9.51-25.32,2.26-9.47,14.07-27.99,9.43-41.18,18.44-9.76,6.66-17.49-1.97-27.47-1.15-13.37,1.1-12.61-3.12-25.01-13.83-26.39-22.81-54.96,53.41-95.38,10.67-11.39-12.04-5.67-25.76-12.56-37.17-3.91-6.47-3.18-13.94-4.04-20.74-1.94-15.43.93-9.92-12.22-9.28-29.42,1.42-41.19,26.15-70.3,32.35-22.99,4.9-7.26,18.6-27.66,18.45-12.13-.09-31.45-11.95-35.24-23.07-3.77-11.08,13.52-27.94,6.44-30.58-7.57-2.82-28.27-14.29-32.27-22.27-12.76-25.45-34.86,32.78-51.38,11.36-3.98-5.16-4.55-14.58-13.15-14.18-3.04.14-2.96-4.62-5.76-1.37-6.64,7.7-5.65-.13-11.53-.1-3.84.02-1.75-4.87-5.05-5.1-42.78-2.96-29.31,35.39-52.95,31.05-69.14-12.68-112.94-36.88-115.24-56.47-2.06-17.51-8.32-22.19-7.83-29.9,3.22-50.77,72.45-25.01,36.89-86.43-6.26-10.81-.74-22.98-2.17-34.29-1.65-13.03-21.66-15.52-10.5-22.18,4.25-2.54,8.61-3.65,12.8-7.98,28.43-29.39,80.55,17.68,115.24,1.82,11.01-5.04-3.55-12.18-11.52-12.98s.21-3.76-3.28-6.21c-5.02-3.53-1.63-10.6-5.93-14.59-11.29-10.45-6.73-17.57-2.3-28.51,6.6-16.32-14.21-9.98-24.2-6.38-21.32,7.69-29.95-6.79-34.96-15.13-3.59-5.99-4.8-20.63-4.29-27.59,1.89-25.97,47.38-28.84,68.83-43.86,24.27-16.99,45.56-6.03,72.99.75,4.26,1.05,5.07,3.98,9.07,5.08,5.39,1.47.57,1.94,5.91,6.44,5.93,5,18.3,9.37,8.06-1.56-10.43-11.13-19.07-21.33-24.24-34.85-1.43-3.75-8.32-5.66-5.72-9.88,3.69-5.99-2.86-3.66-1.15-8.73,2.17-6.45,6.27-13.64,3.17-18.27-2.59-3.89-3.35-2.71-.37-8.07,2.76-4.98-7.7-2.44-11.52-4.61-14.25-8.09,2.62-9.98,7.3-16.13,9.45-12.43,6.48-18.93,19.86-21.72,26.76-5.58,53.44,6.96,81.82,20.88,25.74,12.63,62.45,62.82,77.74,48.1,14.13-13.61,1.98-23.89,18.98-38.04,23.96-19.95,22.86-13.64,36.47-10.38,14.89,3.58,33.35,9.05,37.37,24.96.74,2.9,4.16,3.96,4.69,6.16.75,3.1-2.53,5.88.46,8.07,4.64,3.41,11.09,11.91,15.59,8.5,8.07-6.12,10.14-18.01,12.79-28.09,1.34-5.1-5.01-13.23,1.04-15.44,6.77-2.48,15.45,2.27,21.9-2.25,9.93-6.96,12.92,1.25,23.05,6.11,7.24,3.47,1.24,20.52,14.98,20.71,16.83.23,9.39,17.95,11.1,30.05,2.06,14.55,16.58,24.69,13.94,39.18-1.03,5.64,6.99,1.85,9.82,2.31,13.05,2.1,24.72-1.06,35.44,10.08,1.53,1.59,4.85,4.49,6.11,2.6,9.27-13.86-3.28-35.45-14.04-47.25-9.13-10.01-3.16-21.93,7.93-21.1,4.59.34-3.29-6.18-3.11-8.86.21-3.29,1.94-5.16,2.61-8.07.58-2.5-4.29-4.75-1.09-6.92,3.89-2.63,8.07-.84,13.12-3.16,3.04-1.4,4.3,4.52,8.07,1.54,15.52-12.26,26.99,18.73,31.37,30.42,2.24,5.96,6.31,35.41,15.88,30.33,22.36-11.89,17.9-83.02,35.46-57.98,6.54,9.33-2.03,7.11,9.94,13.83,2.78,1.56,3.8,3.28,6.45,2.51,5.86-1.7,16.32,4.46,17.87-1.36,26.22-98.58,10.64-205.66,0-306.54-1.36-12.88-17.62-10.73-27.08-7.49-13.14,4.51.16,37.27-2,53.59-.58,4.4,2.65,12.78-5.37,5.76-5.82-5.09-18.46,6.66-26.05,3.52-14.85-6.14-7.52-38.8-20.74-49.79-7.22-6,1.7-9.04-3.46-8.99-9.9.11-19.86,7.48-25.35,18.04-3.47,6.69-10.73,4.96-15.97,8.41-6.65,4.37-.65,12.73,1.28,19.59.59,2.11-5.87-.28-7.2-3.17-13.09-28.35-48.79,23.03-58.78,42.18-20.24,38.79,27.09,13.62-30.95,48.57-11.41,6.87-13.78-.87-23.41,6.92-20.49,16.54-23.6,26.94-52.81,2.59-33.41-27.86-16.02-.77-28.81-26.51-18.53-37.28,60.35-62.53,79.51-103.21,9.21-19.57,11.96-19.21-13.82-17.5-323,21.42-715.32-171.34-980.67.56-8.58,5.56,15.05,17.28,16.91,25.37,4.66,20.25,11.45,38.86,16.21,59.93,2.78,12.29,10.55,6.62,14.13,14.98,3.87,9.03-.03,17.97,11.5,22.96,13.33,5.77-4.69,11.31-6.92,17.83-5.97,17.43-6.6,35.09-7,52.55-.32,14.07,18.48,9.65,24.29,19.13,5.77,9.41-14.46,14.76-20.74,20.26-6.11,5.35,7.31,14.64.54,21.69-2.02,2.11.58,4.35.4,6.92-.56,7.89.12,14.41-4.33,21.9-2.67,4.49-.37,10.09-2.58,16.13-3.07,8.42-7.44,3.49-8.55,9.22-1,5.16-6.83,7.96-6.72,12.68.22,9.15-3.7,2.1-6.42,5.93-8.06,11.35-6.65,4.79-14.98,1.28-2.73-1.15.19-8.06-4.61-6.4-3.65,1.27-7.83-1.6-10.21.34-6.44,5.29-7.18,6.28-16.3,3.53-6.59-1.99-4.98-8.47-10.37-13.24-27.53-24.34-25.5-20.19-20.79-65.19,1.15-10.96-5.15-20.22-9.78-31.12-3.27-7.7-11.3-18.09-3.84-24.2,10.31-8.45,17.84-10.23,22.17-23.05,2.7-8.01-4.82-13.21-4.57-20.74.56-16.6-57.41,4.18-37.35-12.75,2.26-1.91,2.73-6.38,5.77-6.5,5.56-.22,2.92-11.59,12.68-14.2,7.31-1.95,7.38-12.61,4.61-18.12-7.87-15.66-15.52-31.02-36.27-36.02-10.75-2.59-14.41-17.18-24.78-3.46-10,13.24-9.74,18.9-11.55,32.92-1.12,8.67-6.28,10.34-14.99,9.86-8.03-.45-5.02-18.34-13.79-16.28-8.28,1.94-11,9.68-18.48,13.7-9.3,5-24.04,10.31-17.29,23.36,5.76,11.12,5.89,19.24,9.39,30.94,2.42,8.06-2.36,5.95-4.93,10.37-2.75,4.71-6.65,12.24-13.48,6.92-6.43-5.02-4.66-10.59-9.23-14.98-11.95-11.48-28.28-32.51-43.99-19.37-12.44,10.41-32.59,20.76-34.66,37.81-4.37,36.01,77.59,57.24,45.03,86.66-3.23,2.92-11.66,6.04-14.98,8.84-10.64,8.97-19.64,15.81-29.96,23.03-8.46,5.92-18.17-5.45-27.66-3.82-12.75,2.19-23.6-13.93-34.57-16.71-12.09-3.06-22.12,12.23-38.03,4.26-16.97-8.5-65.52,19.9-71.8-4.31-1.4-5.4-4.21-27.28-8.87-16.42-3.68,8.58-9.48-3.19-3.45-8.18,18.35-15.16,59.48-16.65,62.28-48,.33-3.67,3.64-4.98,2.24-9.22-.99-3.01,5.15-8.54.01-8.6-19.67-.24-39.97,2.65-58.77,6.43-43.66,8.78-74.48-52.83-92.52,13.69-2.37,8.74-3.93,11.72-10.05,15.33-5.35,3.16-7.76,11.44-13.99,3.1-4.3-5.75-11.14-2.29-18.27-6.75-1.96-1.23-2.8-2.66-5.76-1.15-2.22,1.13-3.7.84-6.91,1.34-6.45,1.01-10.91-1.24-17.29-3.65-4.15-1.57-10.88-7.02-10.91-10.54-.04-4.14.53-4.59,2.61-8.07,4.39-7.35,9.16-14.6,11.76-21.28,2.11-5.43,1.82-8.68,5.04-15.59,2.16-4.65,7.71-10.56,3.03-14.18-1.56-1.2-4.79-.11-4.61-2.77.42-6.27-6.45-13.81-12.67-14.82-16.69-2.71-25.11-11.88-40.34-15.86-8.38-2.19-17.09.66-25.35-1.3-11.52-2.73-3.54-8.53-19.59-5.69-13.44,2.37-30.15,17.29-38.49,6.22-2.29-3.04-5.23-2.5-8.76-2.65-7.13-.32-11.92-3.67-19.1-7.72-4.49-2.53-5.77-3.77-8.56-5.6-3.02-1.98-4.93-4.03-8.07-5.64-3.9-2-7.13-5.23-11.52-2.31-1.47.98-3.91-3.73-5.11-.29-.87,2.49,2.3,1.52,2.96,3.46,1.19,3.47-4.12,4.71-4.43,1.15-.37-4.27-3.44-5.9-6.11-8.56-3.24-3.24-12.33,2.21-12.68-3.46-.39-6.38-5.09-3.48-7.57-6.42-1.59-1.88-6.08,1.95-7.41-.99-2.65-5.86-12.76,4.8-8.36-1.32,1.3-1.81,1.58-2.2,2.48-3.46,7.32-10.22-4.17.7-8.11-8.07-3.34-7.43-7.73,6.44,1.6,6.91,6.2.31-2.09,2.03-4.89,2.59-3.3.66-2.37,2.94-2.59-1.44-.17-3.34-3.01,1.62-4.32,2.77-.79.7-2.65-.72-3.17.69s-4.01,2.88-2.59.49c.57-.95,3.78-2.11,2.3-3.66-1.38-1.45-4.6.64-5.93-.29-1.72-1.2,1.68-7.58-1.85-5.76-7.13,3.67-7.82,15.45-17.57,11.97-15.73-5.61-44.68-16.62-58.77-3.31-19.37,18.3-3.83,59.27,10.81,84.68,7.81,13.55,14.11,28.59,5.49,43.79-10.48,18.48,5.18,20.25,15.97,24.09,3.21,1.14,7.9-2.16,10.64,1.26,2.12,2.65,6.61-.81,9.06,1.15,3.63,2.9.61,6.66,3.34,9.54,12.04,12.71,14.96,31.4,11.53,46.66-3.35,14.87-13.47,23.37-11.85,39.45,1.07,10.63-39.26,48.8-15.82,41.54,20.11-6.23,38.57-7.1,58.78-6.8,20.49.31,16.33-4.41,17.17-17.46.57-8.81,2.28-15.79,4.73-23.7,1.9-6.15-4.83-10.55,5.76-10.75,15.11-.29,27.94-12.2,43.79-5.9,37.03,14.72,29.85-14.89,56.47-9.09,12.99,2.83,10.23,15.37,19.52,20.63,29.87,16.94,41.21,39.95,24.56,72.6-6.9,13.53-59.32,89.45-28.01,78.36,1.76-.62,2.19,1.96,3.52,1.38,17.11-7.37,24.39-26.09,41.99-5.99,42.77,48.84,18.55,44.63,40.65,74.91,10.73,14.7-4.04,18.45,18.5,29.96,25.58,13.06,3.84-10.13,2.79-21.9-3.07-34.51,23.94-14.95,31.23-33.41,11.96-30.3-26.66-71.13-9.51-100.27,7.58-12.88,6.37-25.91,18.1-33.42,2.41-1.54,1.64-3.79,2.8-5.76,4.9-8.27,27.71-18.93,36.67-15.55,9.11,3.44,11.73,17.88,20.75,20.67s17.18,8.76,26.5,10.29c12.69,2.08,18.76,16.17,28.81,25.67,7.06,6.67,7.57,4.33,16.13,3.21,13.02-1.7,14.64,11.14,23.59,15.64,14.02,7.04,2.17,22.96-2.84,32-4.46,8.05,11.16,4.11,14.98,7.3,4.68,3.91,9.01,10.14,11.53,15.36,5.7,11.82,3.37-4.94,10.37-6.76,21.31-5.54,55.21-42.91,77.21-42.34,4.92.13,2.92-.7,5.76-1.24,5.57-1.04,3.05-5.24,3.43-10.09,1.06-13.42,15.71-20.29,24-29.97,7.37-8.61,17.56-11.96,25.74-20.74,36.51-39.19,7.64-6.86,54.01-34.35,35.73-21.19,74.32-23.34,91.04,13.88,7.21,16.04-14.61,27.92-10.48,41.22,2.81,9.05,12.29,8.86,19.7,13.15,7.92,4.59,7.51,19.52,16.13,21.66,20.57,5.11,13.19,14.28,19.11,23.96,6.14,10.05.04,18.79,1.21,31.11,2.5,26.28,14.61,39.24,1.97,53.01-5.6,6.1-14.02,5.14-22.29,5.68-7.11.47-12.97-8.36-20.74-5.34-36.46,14.17-32.27,22.3-58.02,53.83-15.69,19.2,5.73,16.68,14.23,30.97,6.34,10.65,19.23,33.43,1.03,42.78-16.25,8.35-18.41,32.3-33.95,41.49-53.77,31.76-33.13,15.94-22.36,57.62,1.48,5.73,7.02-4.38,8.02-5.79,10.77-15.18,43.68-9.28,56.49,2.33,8.26,7.49,10.48-2.05,16.11-5.03,19.95-10.57,57.08,11.67,58.89,35,1.31,16.81,48.88,38.53,29.36,58.78-17.34,17.99-25.41,9.67-6.57,33.42,7.4,9.34,12.81-8.34,24.35-6.28,26.61,4.75,52.49.11,79.52,5.45,26.87,5.31,55.32,22.62,76.06,47.22,3.48,4.13,7.9,3.53,13.83.74,7.62-3.59,12.79,9.16,18.86-5.64,7.19-17.53,25.91.31,26.08-30.14.05-9.45,10.22,1.56,16.14-.71s8-10.44,14.98-9.71c8.18.86,12.67,7.55,19.59,10.24,11.57,4.5,23.64-3.61,35.73-3.59,14.96.03,20.75-.59,33.78,9.7,9.8,7.74,2.4,11.91,15.77,17.85,23.78,10.57,10.64,10.07,20.74,25.77,2.76,4.3,7.82,13.18,10.38,17.6ZM1528.28-127.63c-6.72,2.86-1.6-7.47.16-2.42.24.7.68,2.06-.16,2.42ZM1499.47,143.23c-1.17.6-1.99-.78-1.15-1.61s2.08,1.13,1.15,1.61Z"/>
      <path id="path4" data-name="path" class="st4" d="M-49.38-156.56c12.52-2.55,14.65,2.12,25.84-2.31,6.35-2.51,9.77-.85,14.24-2.31,19.52-6.36,17.02-.73,25.65-10.04,7.47-8.06-15.33-5.44-19.67-5.51-21.41-.35-58.07-18.13-66.45,9.84-4.2,14.02,13.16,11.8,20.39,10.33ZM-154.07-151.95c9.25-9.01,16.24-.63,21.35-6.92,5.66-6.97,11.77-20.27-4.29-17.86-21.32,3.2-58.06-15.14-67.44,1.77-4.99,8.99,21.52,6.46,27.46,10.41,4,2.66,5.35,9.2,10.22,8.06,4.17-.97,8.17,8.96,12.71,4.54ZM1349.65-143.88c13.34-2.75,38.51-27.94,28.58-32.84-12.14-5.99-47.23-8.08-46.69,12.43.23,8.78,2.6,23.62,18.12,20.42ZM-133.5,91.21c26.65-1.73,38.36-39.45,63.43-49.11,9.11-3.51,29.4-2.69,21.96-11.57-23.76-28.39-40.07-10.28-75.45-7.2-25.3,2.2-34.46,69.46-9.95,67.88ZM1587.86,100.43c11.83-5.5,30.1-8.01,33.77-22.48,5.17-20.37,31.33-3.55,25.92-29.71-7.76-37.53,31.04-126.2-7.48-122.98-18.76,1.57,8.01,57.15-6.92,58.78-16.02,1.75-12.68,25.25-26.51,28.81-52.54,13.51-21.05-65.66-41.98-85.21-6.07-5.67,9.08-19.41-.66-19.66-5.52-.14-7.76,8.71-9.98,12.69-5.85,10.5-18.34,2.15-24.63,10.4-6.44,8.45-8.48,16.66-22.03,15.74-12.14-.82-10.26-15.02-15.13-22.07-6.78-9.81-6.39,1.34-8.35,6.34-5.78,14.74,12,24.2,16.93,38.2,7.19,20.43,26.88,8.03,6.72,35.51-12.05,16.42-38.16-.34-38.03,14.98.03,3.03-2.46,3.65-4.05,4.66-13.43,8.51-27.57-5.33-38.73,9.68-7.45,10.01-27.27,8.52-34.86-.83-8.77-10.8-.29-21.88,2.89-33.62.54-1.98,4.68-8.2,1-6.39-32.34,15.93-87.12,8.17-91.19,39.17-2.4,18.27-25.61,33.04,2.54,37.29,29.88,4.51,21.83,21.05,41.98,8.22,15.06-9.59,2.26-12.51,28.4-17.51,11.42-2.18,20.17-3.03,30.96-3.77,8.77-.61,11.69,12.42,16.2,19.6,4.96,7.89,22.53,11.11,19.51-4.62-3.91-20.39,36.06-17.76,50.89-9.24,16.4,9.42,34.06-23.35,54.71-6.31,8.23,6.79-1.48,14.96-3.04,23.61-1.46,8.17,14.68.73,14.98,12.68.47,18.38,7.69-2.67,13.95,2.42,3.97,3.24,7.38,7.89,12.21,5.64ZM259.47-59.76h0ZM1642.37-13.66c-.55.07-.96-1.7,0-1.5.37.08.29,1.46,0,1.5ZM138.39,145.3c-2.61,13.83-6.58,15.54-13.8,13.44-19.24-5.6-18.95,8.69-32.25,6.27-37.69-6.86-33.27-1.52-60.97-21.18-19.84-14.09-14.04-11.21-33.08-12.8-19.35-1.61-36.69.27-56.32,3.75-17.44,3.09-23.53-8.12-42.58-5.41-42.17,5.99-22.31-41.7-77.88-4.96-10.73,7.1-24.19,10.85-36.1,6.96-10-3.27-19.64-9.81-30.69-6.66-15.85,4.52-6.11-6.34-21.94-4.99-15.69,1.34-4.53-17.57-10.65-24.93s-14.34-13.97-17.71-22.92-6.5-17.25-9.67-24.46c-9.01-20.49,35.92-16.01,45.48-49.7,6.32-22.28-13.15-19.79-9.72-34.41.72-3.07-3.76-2.44-3.45-6.92.13-1.83-3.6-1.27-4.64-2.45-4.25-4.81-7.37-3.54-12.78-4.15-6.74-.76-.87-2.58-9.24-.63-25.46,5.95-17.57,18.32-30.28,31.74-6.28,6.64-15.52,4.44-20.42.75-15.92-12.01-19.3-1.75-28.49,3.47-13.37,7.6-28.63,13.09-44,16.79-34.87,8.4-15.27-18.57-31.59-16.98-5.27.52-.85-6.54-5.24-5.5-3.82.9-1.85-2.69-3.17-4.67-9.49-14.24,16.85-24.01,5.35-30.7s1.74-16.96-5.96-16.9c-43.48.35-41.37,4.21-73.74-13.41-5.29-2.88-6.55-1.39-13.37-2.22-4.48-.54-7.78-1.38-12.3-2.25-19.46-3.72-11.32,6.04-12.05,20.17-1.24,24.07,24.2,20.8,21.8,45.53-1.53,15.76,12.18,12.35,11.28,19.42-1.38,10.88-14.51,31.63,4.96,31.58,17.72-.05,40.77,23.22,39.84,38.77-.6,10.17,1.28,18.76.2,27.75-1.37,11.31-13.24,21.71-7.57,33.28,7.57,15.44-16.75,37.15-4.78,36.97,7.61-.12,12.47-.29,19.59-4.97,13.45-8.84-.59-22.31,2.14-32.05,6.14-21.92,29.92-5.45,44.05-20.09,8.04-8.33,23.51,1.96,29.2-4.28,9.27-10.16.66-11.54,13.59-18.09,9.01-4.57,20.42-7.48,29.15-3.07,15.99,8.08,29.86,16.94,47.64,22.88,1.46.49,5.21-.98,3.45,2.25-4.78,8.79,20.34,13.54,27.7,18.96,48.49,35.68,1.11,71.06-16.01,113.21-2.17,5.33.95.77,1.91,2.41,1.16,2.01-.22,3.21,2.68,3.73,17.94,3.21,24.16,17.85,35.12,31.1,19.39,23.44,23.46,9.2,30.66,40.59,1.11,4.84-5.17,19.53,1.42,17.91,16.77-4.12,14.18-6.63,35.38-17.28,18.9-9.49-15.9-48.85-14.99-71.5,2.42-59.99,17.46-95.55,70.73-85.43,25.17,4.78,10.34,23.5,50.29,28.23,11.35,1.34,21.36,19.22,32.25,5.86,2.47-3.03,4.95-7.88,9.22-5.33,19.5,11.64,32.91,37.93,38.8,60.26,3.91,14.82-4.7,27.42,4.16,23.99,29.34-11.35,39.51-21.66,62.24-28.82,33.48-10.54,49.53-43.92,77.56-63.23,6.38-4.39,13.97-8.02,16.58-17.09,1.82-6.3,2.91-5.88,6.94-14.53,9.44-20.28,53.31-17.51,76.11-31.1,14.32-8.54,34.47,7.14,47.27,16.16,24.77,17.45,15.3,42.67,14.19,68.59-.51,11.99,27.96,25.53,29.64,9.41,1.4-13.46,4.57-21.19,12.96-28.61,13.46-11.9,8.7-21.12-.54-34.4-8.26-11.88,11.28-2.73,11.97-10.04.89-9.44.09-14.38-13.69-18.37-16.47-4.76-29.83-1.21-44.26-5.65-9-2.77-31.69.02-36.84-7.87-5.1-7.82-.36-28.1,1.1-37.32.85-5.34,5.38-4.29,6.98-9.25,1.33-4.13,5.64,1.79,8.25-3.28,3.22-6.24,5.73-11.42,10.21-16.69,8.56-10.06,11.93-2.32,26.72-11.75,13.58-8.66,15.11-26.82,29.43-32.93,4.4-1.88,14.91-6.83,5.52-10.38-5.37-2.03,1.53-7.17-9.32-3.91-19.25,5.78-47.14,4.94-40.37-23.2,3.12-12.95,18.48-14.46,26.53-23.27,14.05-15.4-27.19-57.74-23.92-20.8,2.03,22.93-34.2,31.73-53.85,21.47-21.53-11.25-4.19,32.65-.73,42.97,8.27,24.65,48.43,31.52,6.2,44.76-21.86,6.86-47.67,3.67-63.06-12.58-4.81-5.08-4.5-8.58-9.22-18.05-12.83-25.74-54.65-4.16-33.85,17.45,6.34,6.59,5.51,2.49,9.97,7.66,3.56,4.13,2.56,17.57,9.4,16.23,18.52-3.63,55.75,7.5,35.55,28.24-20.99,21.56-44.83,31.57-51.92,61.38-1.28,5.37.7,16.65-.32,22.07ZM-47.07,28.98h0ZM-415.56,495.71c13.46-11.88-13.45-16.14-18.87-25.45-2.71-4.66-3.63,7.25,6.11,10,4.37,1.23,1.3,9.71,5.56,9.7,6.75-.02,5.06,7.65,7.2,5.76ZM-298.77,544.11c.06-.3-.22-.9-.39-1.15-.71-1.02.02,2.89.39,1.15ZM-293.81,547.57c1.59-2.28-3.25-10.54-4.49-6.91-.81,2.36,1.56,11.13,4.49,6.91ZM731.02,925.56c6.83-2.17,12.69-7.11,17.34-12.68,7.13-8.54-11.2-4.33-12.94,1.46-.77,2.55-10.85,13.26-4.39,11.21ZM-405.32,950.91c6.66-2.52,2.07-1.24,5.75-3.46,4.49-2.7,1.26-8.9,2.11-13.83,3.06-17.63-13.55-31.13-20.73-16.09-9.01,18.85-18.74,45.31,12.86,33.38ZM989.18,293.96c-2.94-15.07-44.8-7.35-55.93-6.9-47.46,1.94-28.29-50.68,3.88-74.32,11.4-8.37,35.61-23.22,48.36-29.34,13.63-6.55,30.98-8.53,40.43-20.4,24.77-31.13-24.26-36.41-21.22-59.18,6.45-48.32,41.07-28.57,58.1-34.19,14.53-4.8,11.62-11.25,24.19-6.27,19.05,7.55,38.2-1.78,58.52,3.76,29.53,8.06,53.19,36.72,82,47.13,6.47,2.34,12.43-10.23,15.04-15.52,2.72-5.52,8.58-2.69,7.76-11.13-1.36-13.91,35.61-24.83,24.1-37.04-8.2-8.69-19.45-3.02-31.39-1.5-21.87,2.79-47.34-20.63-69.66-17.51-15.6,2.18-24.2,10.74-34.58-8.49-6.79-12.58-10.54-6.21-5.86-17.95,2.41-6.05,6.05-3.28,11.53-7.19,2.84-2.03,7.63-8.19,5.71-11.25-9.25-14.67,17.44-6.08,15.03-40.87-.35-5.06,8.89-7.68,12.77-5.55,4.66,2.55,2.18.24,9.26-5.52,3.61-2.94,3.54-7.82,10.34-8.3,17.94-1.28,4.16-21.66,21.17-20.12,6.88.62,9.99,10.84,16.23,11.18,16.58.91,31.68.36,48.26-8.37,18.17-9.57,27.2-28.84,38.78-41.46,5.89-6.42,6.85-14.89,2.32-19.59-3.65-3.79-9.45-7.68-13.83-8.07-7.81-.69-16.13,4.32-18.94,12.72-2.53,7.58-7.74,16.23-16.69,8.94-5.34-4.35-11.74-4.02-13.64-12.1-1.59-6.76-9.86-6.47-15.03-10.35-4.44-3.33-11.7-10.36-16.96-6.14-3.8,3.04-4.8.84-8.4-.29-150.94-47.73-398.23-137.78-500.29-9.49-10.77,13.53,19.83,27.13,32.05,38.5,6.09,5.66,6.45,6.28-1.04,4.73s-9.1.36-16.13,4.62c-4.92,2.98-11.5,5.71-11.53,11.52s10.97,9.84.73,13.22c-22.96,7.59-29.72-20.46-56.62-.94-24.28,17.62-5.87-18.25-23.73-26.52-5.69-2.63-10.48-3.12-11.89-9.15-5.42-23.12,17.24-41.57-21.09-35.97-24.54,3.58-199.94-10.8-166.52,3.86,24.12,10.58,12.6,18.02,13.03,40.51.52,26.88,5.77,12.57,17.71,38.75,9.18,20.12,3.05,29.83,20.21,35,3.23.97,13.2-2.77,11.97,2.35-2.24,9.36-3.08,11.47-6.24,19.81-1.33,3.51-4.38,2.57-6.45,4.39-2.71,2.39-5.39,5.4-6.47,8.18-6.84,17.67-2.75,16.94,14.1,21.38,8.34,2.2,26.74,14.43,13.78,22.05-7.34,4.32,1.04,8.94-5.15,10.67-4.77,1.33-9.19,3.92-9.96,8.21-1.71,9.66-16.57,11.67-16.52,20.83.12,24.14,11.7,41.09-1.67,55.18-16.16,17.03,18.43,47.83,25.66,55.12,4.14,4.18,3.78,2.02,4.84,7.83,1.34,7.34,7.73,9.12,10.62,16.02,1.18,2.81-3.55,4.45-3.35,7.17.21,2.94,4.45,8.55-2.12,9.31-18.13,2.11-11.4,18.62-11.67,29.34-.17,6.77-.82,13.54-9.08,12.15-3.92-.66-7.81.63-11.57.81-4.64.22-6.83.02-10.42-1.38-10.78-4.21-19.42,2.76-29.96-7.34-17.46-16.72-16.33-27.8-43.85-7.34-27.64,20.54-48.2,44.69-59.99,76.38-3.97,10.66,8.96,16.9,8.49,26.3-.35,7.05-.64,10.88.54,18.44,3.12,20.15,39.89,48.48,23.43,58.94-2.97,1.89-2.05,5.07-6.87,4.6-9.42-.92-3.27,19.84-20.74,16.13-8.21-1.74-11.72,8.21-19.64,4.39-22.2-10.72-54.61-29.6-48.92-54.37,1.01-4.41,2.32-4.83-.78-8.37-1.68-1.92-1.89-7.46-5.57-6.05-10.12,3.87-11.71,8.95-16.13,17.45-4.99,9.6-.57,14.78-7.59,28.24-3.65,7,12.51,14.02,12.83,21.93.68,16.47,6.04,32.87,5.67,48.55-.53,22.09-28.67,30.16-44.44,41.01-9.02,6.21-28.43.35-29.57,13.41-.8,9.18,2.07,12.08,10.68,6.7,11.28-7.03,24.75,1.72,36.23,5.84,21.54,7.72,27.07-2.16,48.77,1.41,45.27,7.44,46.87,53.66,78.04,77.12,24.68,18.58-19.65,42.61-3.63,48.22,16.32,5.72,31.01-3.04,48.67-3.48,9.54-.24,18.64,7.62,23.05,5.2,16.2-8.87,17.6-11.46,30.08,3.32,18.81,22.26,48.29,40.62,77.52,38.96,18.3-1.04,37.54-1.74,31.98-29.75-2.65-13.37,8.54-6.75,18.8-6.21,16.23.86,29.12-1.51,46.55-.11,24.44,1.97,19.72,5.25,43.85,3.3,37.1-2.99,32.76,26.63,47.24,24.09,9.98-1.75,10.63,1.68,18.44,7.8,8.58,6.73,5.03,15.68,10.4,21.16s8.06,14.1,15,18.25c15.4,9.21,42.16-4.79,54.52-1.88,10.42,2.46,18.99,5.11,28.55,6.62,22.87,3.61,14.46,10.31,32.6,15.01,14.29,3.7,11.29-12.11,19.65-12.43,9.44-.36,16.02-1.98,24.88-4.09,9.85-2.35,18,8.39,26.55.72,18.28-16.38,37.79,25.82,44.13,38.54,4.17,8.38,8.97,13.36,12.82,21,5.79,11.48,2.4,23.09-1.48,35.8-2.37,7.77.28,9.12,2.89,17.36,6.8,21.46-15.54,41.86-28.51,60.59-9.2,13.29-9.16,8.66,9.18,9.29,34.47,1.2,66.17,10.03,98.8-11.02,4.55-2.94,8.03-4.71,12.89-5.67,27.54-5.45,56.13-49.04,9.65-50.91-8.49-.34-15.86,9.66-23.29,5.95-5.74-2.87-9.85,7.05-14.99,3.95-9.11-5.5-23.5-.13-31.47-8.69-7.3-7.83,6.34-21.06-4.7-28.56-9.66-6.56-4.76-14.92.52-24.22,3.82-6.72-.09-20.05,7.26-23.32,10.5-4.68,17.02-8.23,27.24-14.8,9.62-6.19,16.69-14.42,25.53-21.13,19.17-14.54,29.1,5.43,59.8-5.8,3.34-1.22,2.39-5.45,4.3-7.68,2.56-2.99,3.68,1.12,3.37-5.11-.34-6.81-1.75-4.53-.11-8.79,15.22-39.5-27.68,1.57-2.35-60.26,11.48-28.03,52.66-8.43,66.42,5.28,3.91,3.89,9.35,15.49,12.59,21.96,8.59,17.14,18.88-5.69,22.87-7.02,6.08-2.03,11.71-5.04,18.53-2.49,9.47,3.54,18.12-6.96,27.83-1.69,12.31,6.67,1.77,10.34,15.92,9.74,3.52-.15,4.82.48,4.6,2.35-1.35,11.08,19.91,12.9,18.16,23.33-.94,5.65-.77,10.49-3.25,17.12-.89,2.37.95,6.28-2.35,5.48-1.87-.45-.88-3.56-2.18-2.18-7.5,7.89-3.04,7.17-6.94,14.44-6.68,12.42-7.27,22.26-11.5,33.96-2.06,5.69,6.47-7.94,5.72.1-.8,8.6,2.1-1.18,5.21,10.52,10.17,38.2-11.52,23.54-29.51,45.86-41.46,51.44,30.36-2.36,49.06-11.71,20.65-10.33,31.69-3.03,49.04,9.4,6.84,4.9-.75,5.26,6.91,6.91,9.05,1.96-.58,5.88,13.95,13.95,8.66,4.81,1.76,19.51-3.78,22.92-6.66,4.1-5.48,12.42-12.04,14.13-4.99,1.31.09,6.28-8.49,5.46-10.09-.96-8.59,5.94-15.03,6.92-8.54,1.29-18.27-.1-24.4,5.25-26.88,23.47,63.52,13.35,81.33,16.08,64.57,9.89,150.85,45.82,196.06-.58,17.69-18.15-.19-50.71,0-76.06.36-48.85-.76-11.91-29.54-18.76-10.83-2.57-23.03-8.1-28.28-18.38-4.42-8.66-15.63-.9-18.81-10.39-6.41-19.08-9.13-14.16-25.35-12.4-11.09,1.2-13.06-7.62-14.37-15.14-5.81-33.42,38.78-64.33-12.14-63.22-4.75.1-6.69-3.47-10.41-3.47-6.97,0-20.41,1.86-17.41-8.3,2.41-8.18,7.41-14.18,9.57-22.72,1.4-5.51-1.92-10.51,4.27-17.05,3.41-3.6,11.64-3.58,11.98-8.39,1.58-22.62-3.92-15.04-20.88-13.47-10.38.96-19.05,3.76-30.71,5.39-20.37,2.86-32.09,7.69-48.97-2.31-12.27-7.27-20.83,2.32-31,8.09-7.91,4.49-12.2,11.96-19.26,18.49-3.68,3.41-3.18-9.18-11.48,4.69-4.25,7.11-7.17,6.64-11.49-2.95-2.62-5.82-9.47-12.59-16.33-14.94-10.14-3.48-13.22-13.63-18.8-21.55-8.32-11.78,2.43-4.93-2.14-21.96-4.1-15.3-10.73-20.09-11.65-34.41-.31-4.83-9.86-3.96-11.56-4.94-10.47-6.02-19.48,13.65-26.74,21.14-5.96,6.14-13.66,8.45-17.95,17.31-10.85,22.39-24.91,35.25-48.77,8.77-5.94-6.59-15.18-8.32-22.64-11.34-16.16-6.53-1.48-41.04-13.21-41.88-30.85-2.21-21.58-12.74-40.7-8.68-13.93,2.95-33.26,25.2-47.86,8.73-10.48-11.82.28-17.07-9.99-20.24-15.85-4.89-12.63,27.05-30.27,28.02-6.92.38-9.1,2.74-14.98,3.21-9.73.78-14.69-12.37-23.86-16.27-18.01-7.66-21.14-4.54-34.96-13.17-22.24-13.89-105.99-1.15-78.18-37.07,9.29-12-5.08-9.71-5.69-16.78-1.88-21.81,1.92-55.18,22.06-68.12,10.81-6.94,14.48-6.13,19.71-18.43,7.92-18.65-10.14-19.31-14.69-34.97-3.04-10.46-9.79-19.45-9.87-30.23-.07-10.37,6.6-8.75,5.89-19.33-.66-9.87,13.95-13.85,22.44-16.34,21.04-6.17,49.43,9.25,68.34-10.23,4.91-5.06,9.69-20.03,8.34-26.95ZM1271.29,702.34c-1.45.21-1.85-3.56,0-2.65.69.34.82,2.53,0,2.65Z"/>
      <path id="path5" data-name="path" class="st13" d="M-563.91-74.74c0-.21-.39-.64-.6-.6-.77.16.61,1.61.6.6ZM-563.07-73.58c-.06-.34-.01.13-.29.29,0,0,.31-.19.29-.29ZM272.31-19.42c6.73-4.73.17-17.02,4.85-29.96,3.44-9.49-24.38,1.24-29.24,5.76-9.8,9.11,12.66,32.45,24.39,24.2ZM293.67,14c4.61-3.92,25.53-14.15,14.21-20.45-14.65-8.15-36.2,39.15-14.21,20.45ZM1554.03,33.59c12.67-36.57-7.79-10.49-26.9-4.63-5.7,1.75,4.57.4,6.11,1.17,5.16,2.59,19.08,8.4,20.8,3.46ZM228.81,50.88c13.54,2.32,43.57-30.89,21.55-23.05-13.46,4.79-27.75,1.36-37.79,10.37-11.09,9.95,9.99,11.61,16.24,12.68ZM1212.75,84.3c19.18.31,6.21-31.92-9.45-30.42-45.99,4.41-18.82,29.96,9.45,30.42ZM-471.04,106.19c11.27-2.55,18.96-10.13,28.69-16.84,5.34-3.68,13.78,2.32,17.66-5.05,22.72-43.25,39.22-30.16,74.54-13.58,12.67,5.95,10.43-12.59,25.35-3.76,19.17,11.35,2.86-15.05,4.61-23.72,5.51-27.3,53.08-25.37,47.02-45.37-20.49-67.53-29.1-15.52-64.3-2.64-19.83,7.25-10.12-1.77-21.75,4.94-15.07,8.7-6.42,6.38-14.06,8.07-5.42,1.2-11.38-.34-19.51,1.66s-2.15-.48-6.91,3.5c-3.65,3.05-8.85,2.31-13.83,3.18-19.27,3.36-41.41,13.38-58.77,1.9-9.5-6.28-40.64-23.8-21.9-33.18,10.86-5.44,3.81-12.38,9.81-19.69,4.81-5.86-9.85-3.63-4.25-14.98,3.52-7.14-11.6-17.18-15.93-11.58-5.56,7.18-11.91-1.72-15.04,3.51-2.09,3.49-3.91-1.24-4.55-3.3-1.61-5.2-2.75-3.43-7.26-2.45-3.65.79-7.98-7.57-11.18-4.35s-4.01-1.99-6.92-.42c-5.05,2.73-5.36-3.75-8.71-5.61-6.5-3.59-4.1,2.79-.53,6.91,21.97,25.45,17.38,65.64,46.2,88.73,64.93,52.03-4.29,94.49,41.53,84.13ZM183.02,122.26c14.79,3.82,28.49-1.77,38.34-13.77,7.44-9.06-6.46-14.53-12.6-21.25-5.03-5.5-5.77-20.13-14.98-14.52-11.85,7.21-34.35,20.66-28.83,32.31,2.76,5.84,11.82,15.61,18.07,17.22ZM307.07,188.01c4.17-.19,25.09-21.85,21.54-25.82-10.18-11.38,2.86-29.08-12.68-33.84-16.43-5.03-15.18,17.82-10.43,28.54,4.2,9.47-8.97,31.61,1.56,31.12ZM7.33,241.02c20.88-4.26,33.73-10.97,51.65-24.2,9.89-7.31,61.54-38.76,49.53-43.36-6.59-2.52-13.56,2.22-20.75.67-7.97-1.72-14.35,7.18-21.9,2.66-10.51-6.29-16.18-14.65-28.11-15.29-9.09-.48-7.69.66-13.8-4.61s-4.23-13.06-11.1-6.06c-12.85,13.07-32.88,7.77-50.7-.24-33.73-15.16-10.72-2.81-16.13,8.38-4.86,10.05-11.38-7.72-15.4-11.3-8.7-7.74-26.56,1.87-37.61-1.43-8.24-2.46-15.55-4.63-23.05-6.93-11.17-3.43-7.02-18.12-26.16-13.53-6.04,1.45-25.73,7.4-21.11,13.82,8.54,11.87,24.31-2.38,35.57,3.46,17.68,9.18,15.04,27.31,34.75,33.36,15.49,4.75,11.53-10.86,19.11.06,5.39,7.78,13.33,10.26,20.08,3.57,18.82-18.67,42.87.42,41.81,20.63-.89,16.98,15.38,44,33.34,40.33ZM-213.82,310.17c22.54-7.62-5.87-27.96-5.35-47.25.32-11.91-20.29-11.87-14.36-29.96s-5.1-36.78,12.52-47.25c6.49-3.86-.78-20.97,7.98-20.2,6.71.58,8.79-1.13,12.68-4.79,4.6-4.32,11.77-1,14.98-6.81,9.55-17.25-21.89-4.83-28.81-5.42-12.96-1.11-21.9-1.48-34.22-4.26-18.97-4.27-14.53,5.37-15.99,19.59-1.77,17.16-10.56,30.45-18.08,46.1-10.06,20.92-10.42,19.44,10.07,32.26,10.76,6.73,7.83,26.57,22.5,30.7,28.27,7.96,17.68,43.52,36.08,37.3ZM1255.78,682.4c9.21-3.81,18.96-15,29.34-16.65,3.81-.61,9.44.49,9-4.09-1.24-12.68,6.64-31.42-3.09-41.49-17.53-18.13-30.74,12.72-45.09,20.41-5.82,3.12-10.75,14.1-14.47,21.07-3.4,6.37,10.87,13.25,16.78,13.86,4.49.47,3.27,8.65,7.54,6.88ZM1469.24,758.46c2.47-2.33-4.19-8.39-4.61-12.68-.75-7.65,5.92-9.25.29-17.28s-13.35-15.32-13.24-25.35c.42-37.47-15.37-22.36-37.49-25.47-11.36-1.6-41.7,14.56-34.57,31.29,8.5,19.95-2.82,27.22,24.2,16.73,5.56-2.16,7-9.01,14.98-5.95,8.81,3.38,4.32-6.98,12.68-2.6,4.02,2.11,4.78-6.14,9.22,0,8.8,12.19,11.89,3.5,16.07,17.12,1.45,4.73,5.23,7.44,5.7,11.52.62,5.41,2.47,16.75,6.78,12.68ZM790.24,49.73c-13.82-11.95,2.56-41.38-13.58-51.86-23.14-15.02,8.94-26.55-26.27-40.46-17.93-7.08-32.34-17.24-48.4-28.42-14.02-9.76-17.28-5.62-32.27-12.11-3.45-1.49-2.36,4.23-3.35,6.08-6.97,12.96-20.28,22.6-21.68,41.49-.48,6.52,2.48,12.03,4.29,17.94,1.27,4.15-4.64,7.78-1.96,12.02,11.54,18.25-2.93,22.16-19.94,24.24-20.93,2.55-27.49-11.13-53.01-2.63-13.96,4.65-8.63-17.66-13.83-27.72-7.81-15.11-.33-29.35,0-46.17.24-12.36,10.94-22.89,8.07-34.25-2.7-10.69-4.13-19.9-15.91-25.24-8.91-4.04-19.05-7.86-19.5-20.74-.06-1.58-3.56-.81-3.69-2.3-.47-5.57,7.24-9.85,12.59-10.02,12.81-.42,9.44-9.3,16.13-7.59,4.1,1.05,8.51-2.26,12.68-.8,16.57,5.8,56.81-1.59,35.76-17.32-31.61-23.61-90.37-1.98-132.56-.58-3.57.12-6.67-3.35-1.51,4.04,14.25,20.4-3.51,23.6,2.27,41.49,5.35,16.53,25.9,28.17,25.08,44.94-.59,12.07,3,13.57,11.33,17.29,17.24,7.7,13.32,18.41,16.04,33.42.98,5.42-11.83,5.03-1.35,14.48,6.3,5.68,10.38,12.84,14.98,19.7,3.25,4.84-6.73,5.55-8.29,10.77-6.72,22.39-25.08,30.77-28.58,48.32-11.1,55.55-10.77,51.51,15.75,100.28,14.75,27.14,19.44,22.65,46.48,36.38,8.81,4.47-3.03,12.94,11.02,17.84,8.38,2.92,15.9,7.52,18.54,16.14,9.19,30.01-21.33,34.64-43.4,32.85-11.95-.97-23.91,4.65-35.44,6.33-34.69,5.05-58.36-3.36-91.65-21.9-21.27-11.84-56.24,47-65.95,65.69-6.88,13.25,10.11,26.58,11.03,40.34,1.53,22.85,12.46,40.17,26.14,59.92,14.49,20.93,45.53,19.92,64.83,28.9,11.67,5.43-2.4,6.28,2.14,14.9,11.28,21.42-11.31,8.49-19.43,18.27-9.2,11.08-25.3-2.56-42.64-1.61-11.01.6-12.68,8.24-20.74,9.45-5.29.79-8.33,1.36-13.34,1.55-3.06.11-7.12,4.97-7.39,1.16-1.18-16.68,8.66-9.86,5.01-20.74-1.31-3.89-4.74-1.25-7.75-5.76-4.54-6.79-1,.07-15.71-4.27-12.32-3.64-9.83,2.89-23.05-2.34-11.2-4.43-20.67-12.84-27.38-23.36-5.44-8.53-15.53-30.87-23.33-9.72-4.06,11.02,3.19,10.95,1.78,20.09-3.26,21.07,5.64,33.1,9.87,53.01,6.3,29.72-32.88,33.95-50.26,46.1-8.68,6.07,23.32,14.96,28.24,13.64,15.39-4.14,25.56-.26,40.07-.96,29.07-1.41,40.85,38.53,57.77,58.77,7.95,9.5,16.38,15.09,22.17,27.66,4.51,9.78-.85,17.18,4.44,23.9,11.15,14.17,43.06,21.11,58.78,8.09,12-9.93,21.45-.52,27.66,11.81,9.79,19.45,42.83,17.35,59.93,28.23,12.69,8.07,8.49-13.26,23.05-10.06,16,3.51,8.2-25.08,16.13-26.16,23.12-3.15,44.35,1.49,67.99,5.49,25.95,4.39,73.97,2.68,92.2,23.46,5.74,6.54,20.97-6.4,26.5,6.08,3.85,8.68,13.18,9.2,17.29,16.03,6.09,10.12,8.72,20.45,15.23,29.52,12.42,17.3,24.58-14.41,42.68-6.91,47.65,19.74,36.12-8.69,98.69-6.92,11.93.34,22.79,1.39,33.55,5.44,8.55,3.21,18.02,1.27,23.05,9.17,6.54,10.26,16.4,12.45,21.74,22.27,7.29,13.39,14.93,45.97,27.64,41.49,11.85-4.18,12.95-13.67,23.22-22.61,9.22-8.02,11.85-19.23,20.58-26.94,47.35-41.83,59.81,7.52,80.83-22.84,13.61-19.66-51.12-46.01,12.17-80.88,24.93-13.73-.38-18.46-11.93-27.66-10.6-8.45-9.71-30.17-24.44-28.36-29.04,3.57-17.43-30.83-50.71-3.94-9.13,7.38-23.61,15.49-31.12,7.81-5.11-5.23-9.69,2.47-13.83,1.89-4.51-.63-13.61.57-18.44,3.44-5.94,3.53-7.66-3.45-13.83-6.09-8.59-3.68-22.52,1.14-24.47-7.02-4.89-20.44-19-6.66-30.08-20.81-17.3-22.1-52.78-11.47-78.77-21.83-15.99-6.38-1.49-30.21-10.73-28.73-11.69,1.87-19.15,10.2-18.51-7,1.11-29.47-6.08-57.03,10.57-49.55,16.35,7.34,15.43-18.17,20.61-21.89,4.62-3.31,7.51-9.33,12.68-11.13,25.31-8.81,4.76-33.53-8.41-44.19-13.86-11.22-4.06-34.48,1.76-50.71,14.05-39.19,96.64-14.04,95.39-46.18-.67-17.11-32.21-5.81-47.25.72-20.26,8.79-27.62-22.16-38.02-32.9-14.63-15.1-3.91-32.21-.49-49.56,3.95-20.04,35.28-14.9,51.18-32.16,8.06-8.76,20.97-.08,31.12-9.81,12.59-12.08,47.35-10.36,44.78-28.32-3.24-22.64-33.76-33.84-33.07-59.93.86-32.87,14.87-26.89,48.22-32.63,11.34-1.95,17.3-.69,27.66.89,8.15,1.24,11.44-10.99,23.05-8.07,4.64,1.17,5.43,5.53,9.12,6.39,10.38,2.41,1.41-6.29-1.21-10.37-7.07-10.99-14.12-18.96-26.23-25.35-7.77-4.1-11.29-15.02-15.79-21.9-2.32-3.54,2.33-2.6,3.66-3.46,7.29-4.72,13.72-10.12,19.02-14.98,11.27-10.36-20.14-23,4.53-29.68,22.15-6,44.73,19.79,64.54,6.97,4.03-2.61-3.78-5.59-5.49-8.41-2.38-3.92-3.73-9.77-8.34-11.42-7.28-2.61-6.47-6.06-6.51-13.93-.04-7.53-4.7-17.15-10.94-23.05-1.57-1.48-4.74,2.61-3.3-.86,6.16-14.84,32.81-36.54,10.37-41.94-3.99-.96-2.89-4.34-5.47-5.6-4.62-2.24-11.62-8.48-4.61-11.53,19.84-8.64,37.23-7.77,56.18,3.22,8.35,4.84,24.49-6.03,26.51,8.61.21,1.55,2.67,1.51,2.48,3.15-.16,1.35-2.95,1.65-2.61,3.46,3.23,16.94,29.15,11.87,12.8-3.01-12.5-11.38-4.41-18.55-12.67-29.45-79.63-105.16-269.61-4.68-403.35-3.85-5.98.04-37.78-6.26-29.97,4.35,13.53,18.37,13.34,16.23,30.17,28.49,35.68,26,15.74,25.03,34.37,44.55,16.39,17.17,53.09-25.05,61.72-8.83,4.56,8.57,2.04,3.45,2.54,9.22,4.37,50.85-62.59,24.52-10.1,113.05,7.74,13.06,9.74-2.18-1.55,20.63-2.81,5.68-8.11,10.72-7.9,16.13.22,5.96.04,15.98-7.95,19.59-16.02,7.25-53.92-9.24-67.22-20.74ZM1121.47-126.1c-1.24,0-1.24-2.14,0-2.14s1.24,2.14,0,2.14ZM1003.86,950.91c5.67-2.74,13.48-4.17,14.2-11.52.38-3.84-.18,2.57,4.31,3.38,69.28,12.37,56.73-11.31,99.82-28.73,34.83-14.08-68.49.1-83.68-19.37-7.74-9.92-12.14,24.74-18.09,33.2-3.58,5.08-38.92,33.85-16.55,23.05ZM1647.55,950.91c10.01-22.03,1.11-48.43,0-72.6-.36-7.89,5.32-15.05-8.3-10.37-5.8,1.99-10.26,4.95-16.48,5.32-9.72.58-13.93-2.91-22.53-7.63-5.91-3.24-9.35-5.97-13.2-7.44-17.25-6.62-19.12-11.51-39.18-10.86-12.47.4-36.7-9.44-36.37-27.8.22-12.2,3.87-26.46-8.74-29.96-18.25-5.07-23.16-22.16-34.06-2.31-9.72,17.71,20.96,25.43,34.22,28.35,9.8,2.16-1.87,8.26,6.71,13.14,4.28,2.43-7.59,4.16-3.25,7.08,4.87,3.28-.8,7.06-2.31,10.81-9.1,22.73-18.86,18.68-33.42,30.48-17.2,13.93-10.37,35.68-24.43,49.59-8.67,8.57-28.27,15.67-22.82,24.78,13.62,22.76,45.51-2.14,66.38-21.33,17.44-16.03,42.43-17.85,62.69-30.45,3.22-2,3.02,6.22,6.71.49,6.74-10.44,5.02,2.3,9.42,4.73,9.63,5.31-2.46,22.17,3.95,29.85,4.44,5.32,1.4,7.72-2.8,7.61-18.54-.51,72.48,20.2,77.79,8.53Z"/>
      <path id="path6" data-name="path" class="st22" d="M497.97-171.54c4.04-4.22,9.56-3.54.04-5.19-1.97-.34-3.64,8.95-.04,5.19ZM496.1-166.93s-.42-.05-.42,0c-.04.32.44.13.42,0ZM542.35-64.37c38.61-7.11-9.63-59.03-31.66-74.94-2.52-1.82-16.76-32.15-15-17.25,2.11,17.9,5.73,36.08,13.85,50.77,7.29,13.18-3.35,12.21,4.5,21.84,6.73,8.25,17.66,21.55,28.31,19.59ZM516.46-87.24c-.78.6-2.34-1.33-1.15-1.84,1.38-.6,2.1,1.11,1.15,1.84ZM-510.09-17.12c11.58-7.59,12.82-36.5-9.4-20.74-10.15,7.2.74,26.42,9.4,20.74ZM-383.5,22.07c.38-2.5-1.95-.37-1.24.13.12.08,1.18.21,1.24-.13ZM-486.03,30.13s-.07-.17-.12-.16c-.14.01.09.39.12.16ZM-472.23,91.21c-.11-.41-.04.19-.09.38,0,0,.11-.29.09-.38ZM-469.11,93.52c6.43-8.38,18.65-9.15,26.76-15.46,19.5-15.19,34.57-49.15,65.69-28.19,11.92,8.03,24.8.55,38.03-.84,9.09-.96,2.84-9.19,4.93-14.28,2.94-7.17,8.06-13.35,14.86-18.44s11.79-10.74,20.55-12.84c9.16-2.19,1.53-20.52-14.98-10.6-10.48,6.3-5.93,7.43-13.52,9.62-8.69,2.51-13.85,6.41-22.21,7.78-18.49,3.04-29.63,16.91-50.71,11.82-16.87-4.07-21.96,11.29-41.49,6.07-3.67-.98-5.79,3.25-9.22,4.26-9.94,2.92-16.52-9.6-23.05-5.09-2.56,1.77-4.56-.01-7.68-.64-10.46-2.08,16.87,22.24,13.39,39.18-1.08,5.24-5.99,33.71-1.35,27.66ZM200.03,110.8c9.5-4.75-.39-20.54-7.4-21.39-5.13-.62-12.74,8.83-5.14,13.32,4.08,2.41,6.88,10.9,12.54,8.07ZM-164.2,138.46c.05-.93-2.15-.66-2.13,0s2.09.83,2.13,0ZM962.77,168.42c11.73-5.88,22.79-7.58,31.95-16.46,14.08-13.66-28.84-26.72-24-45.77,1.07-4.22-.67-8.98-2.65-13.83-3.25-7.97,1.18-15.52,1.32-24.2.3-18.7,22.51-31.53,42.62-26.7,10.1,2.42,20.14,2.49,31.12,1.04,29.21-3.85-12.05-9.74-16.13-19.74-8.82-21.6-47.08-12.26-55.14-42.18-1.37-5.08-11.14-7.19-13.89-11.53-5.24-8.27,23.58-16.12,34.45-19.3,33-9.63-12.61-19.75-6.13-32.56,8.62-17.05,45.73-5.73,48-16.13,8.83-40.38,25.59-42.12,39.94-65.3,19.84-32.04-72.29-11.89-88.73-12.51-24.79-.93-257.55-25.31-179.78,16.65,13.91,7.51,11.48,22.18,22.38,34.64,5.3,6.06,21.47,3.53,24.87-2.12,5.08-8.44,2.68-19.79,5.91-28.99.79-2.26-4.21-3.05,1.01-3.98,10.32-1.83,22.61-5.17,25.35,5.2,11.16,42.25,50.1,6.61,69.15-4.91,16.08-9.73,17.47,10.38,24.2,17.43,18.91,19.8-22.39,43.88-35.72,60.1-14.51,17.67-39.26,23.48-53.82,40.25-3.17,3.65-9.13.7-9.91,4.6-1.6,8.01.8,23.48,11.87,26.74,63.59,18.71-23.62,60.07,29.96,54.74,15.19-1.51,16.84,5.64,17.98,17.63,2.25,23.82-53.41,28.64-22.59,47.74,17.56,10.88,25.73,69.82,46.42,59.44ZM934.78-163.33c-.25-.09.12,0,.23-.14,0,0-.17.17-.23.14ZM945.16-159.63c-1.26.31-1.01-2.27,0-2.3,1.09-.04.96,2.07,0,2.3ZM-72.36,169.57c2.61-1.77,5.17-8.02-.07-7.34-2.07.27-4.14,10.18.07,7.34ZM7.89,231.81c21.85.33,53.78-19.04,49.91-38.38-1.43-7.15-9.06-10.29-14.98-13.78-6.3-3.71-9.69-.72-17.29-2.54-8.48-2.03-13.61-7.44-21.9-8.35-16.37-1.79-31.04,17.01-17.49,31.94,7.69,8.48,7.69,30.9,21.75,31.12ZM-247.52,254.85c21.37-6.62,4.35-43.95,4.26-63.38-.06-12.07,34.83-27.58,7.19-33.82-24.37-5.5-30.42,42.54-42.71,63.78-10.26,17.75,19.43-2.51,20.6,16.14.38,6.09,6.84,18.47,10.65,17.29ZM-232.61,159.25c-.26.54-1.92.57-2.06-.04-.21-.91,2.42-.68,2.06.04ZM1261.68,652.44c14.5,2.55,26.03-10.31,10.7-24.2-3.65-3.31-2,4.77-4.02,5.76-7.36,3.61-20.31,16.05-6.68,18.44ZM743.48,90.67c4.2-7.81,6.66-8.03,10.87-13.29,3.57-4.46,8.32-7.74,8.13-14.98-.2-7.38,5.08-11.25,2.7-18.44-4.52-13.63-23.49-73.12-40.13-73.36-18.48-.27-31.35-26.4-51.86-10.38-3.26,2.55-10.55.89-7.48,6.53,2.94,5.4-.43,14.25,6.33,17.32,10.02,4.56,30.01,9.62,28.48,23.01-3.75,32.89-65.77,30.61-91.86,44.38-21.63,11.41-34.84-4.11-47.25-18.19-15.72-17.83-20.46,9.21-32.27,15.01-15.11,7.42-9.96,7.39-12.37,18.73-7.6,35.66-13.36,49.49.85,69.57,8.81,12.44,8.06,24.62,19.59,28.89,32.28,11.95,37.4,16,54.11,13.33,10.39-1.66,30.65,4.43,31.78,14.97,1.82,17.01-11.96,22.08-8.11,42.64,6.46,34.51-43.99,56.42-63.94,42.7-4.13-2.84-4.03-1.03-6.91.13-4.28,1.71-4.62,2.48-8.07,1.25-12.08-4.33-8.86.29-21.23,2.02-10.79,1.51-15.47,8.08-27.17,5.29-5.04-1.2-5.88,8.44-12.68,3.5-9.13-6.62-20.77-4.44-27.66-14.33-6.08-8.73-28.31-20.47-37.2-8.3-15.31,20.95-19.07-.32-29.04,27.66-2.07,5.81-8.14,8.39-8.42,14.98-.82,19.38,11.35,33.2,9.51,51.86-.98,9.88,10.12,12.98,13.43,20.74,5.95,13.93,1.79,19.56,20.61,24.53,21.4,5.65,41.34,10.64,61.08,16.48,12.08,3.57,21.54,2.09,31.11,13.77,7.46,9.1,14.24-1.37,20.59,6.31,8.71,10.53,22.27,14.26,30.09,26.51,3.57,5.59,2.25,4.55,2.65,11.52.45,7.73,8.63,14.56,1.6,19.59-1.88,1.34-4.69-1.72-6.69,1.15-3.79,5.43-5.24-8.03-12.51-5.15-6.71,2.66-3.45,10.38-9.22,10.74-6.76.42-4.87,9.88-7.89,15.16-11.88,20.79-30.2-14.88-52.5-25.02-11-5-18.11-10.9-23.73-11.61-8.97-1.12-12.62-1.72-21.9-.37-12.45,1.81-7.62,4.18-19.55-3.34-7.77-4.9-6.75,3.29-18.48,3.68-14.28.48-7.24,17.89-25.35,18.2-26.35.45-12.28-39.83-24.94-39.16-4.13.22-5.32-3.38-7.33,1.33-12.91,30.3-15.76-16.24-27.65-16.86-6.84-.35-6.18-7.62-10.37-8-27.36-2.47-5.9,18.48-2.3,33.14,3.58,14.61-4.1,30.54-9.54,44.55-3.07,7.92-18.72,12.42-11.3,16.13,9.04,4.52,19.42-3.39,30.82,3.39,33.04,19.67,66,55.64,89.02,88.79,26.36,37.97-.41,39.07,38.13,32.6,15.86-2.66,23.54-22.56,39.33-11.85,9.11,6.18.34,36.47,15.98,30.48,9.31-3.57,10.9,1.54,18.44,2.77,12.35,2.02,25.08,6.98,34.57-1.09,14.67-12.46,7.4-23.05,32.27-25.09,13.19-1.08,25.64,10.24,38.8,11.3,19.96,1.61,41.49-2.95,61.08,3.46,11.01,3.6,22.71-3.48,32.65,2.58s7.98,10.9,21.9,8.33c18.5-3.42,28.47,12.18,43.41,14.51,14.97,2.34,15.28,10.3,22.28,23.97,4.2,8.2,3.29,24.99,13.83,20.81,41.32-16.35,50.44,15.12,93.35-8.37,48.2-26.39,72.79-20.86,111.74,18.9,7.01,7.15,13.52,13.02,18.81,21.89,3.58,6.01-1.16,20.76,6.8,20.74,8.79-.02,9.59-15.87,14.09-24.2,8.9-16.46,29.23-26.81,46.78-33.74,3.82-1.51,7.45,5.27,11.53,3.31,10.58-5.08,43.56,7.39,33.22-11.05-15.44-27.53-4.21-44.84,16.34-67.79,16.58-18.52-21.23-40.31-39.05-42.84-18.12-2.57-33.77-23.51-36.71,0-.72,5.73-1.73,7.16-3.43,11.52-3.88,9.98-10.64,16.99-19.93,16.39-14.86-.95-25.98-7.62-36.88-17.57-4.34-3.96-11.75-3.31-14.72-10.35-7.7-18.25-68.35,5.41-64.18-28.81,3.83-31.46-67.44-6.41-80.13-31.32-10.62-20.86-17.01-12.82-31.13-21.38-15.11-9.16,4.95-21.44,2.95-32.57-1.05-5.89.77-7.74-2.95-11.91-5.35-6-13.35-13.13-6.08-21.51,11.21-12.92,5.34-8.76,19.91-14.94,6.08-2.58,12.33,2.51,18.44-2.58s16.04-19.52,13.83-27.98c-5.93-22.76-28.24-5.87-21.22-21.34,4.21-9.28,2.55-16.49.59-25.36-3.05-13.78,14.4-7.88,6.8-17.32-11.3-14.04,4.77-11.2,8.07-19.34,6.31-15.58,4.24-19.05,19.59-25.03,36.36-14.17-22.81-40.92-20.63-66.23,1.17-13.53,4.12-27.28,3.35-41.48-.89-16.47,44.21-19.56,28.91-32.27-27.25-22.63-88.64,4.48-126.12-5.82-25.92-7.13-67.99-16.13-33.04-81.14ZM1052.45,934.78c38.08-10.25,1.92-28.08-14.24-17.29-10.23,6.83,4.93,19.79,14.24,17.29ZM1453.72,940.54c.02-.23-.08-2.19-.4-1.15-.22.73.23,2.97.4,1.15ZM1457.21,940.54c7.03,3.12,10.04-10.11,16.9-13.81,9.05-4.87,12.75-12.52,20.74-19.34,16.04-13.69,38.31-13.48,56.47-25.06,15.66-9.99,35.09,14.54,46.72,6.36,8.62-6.06-8.94-9.72-13.3-14.94-14.27-17.08-43.43-23.89-64.07-16.19-8.99,3.36-7.53,20.62-20.05,23.85-12.35,3.18-25.58,11.94-32.27,23.3-4.55,7.74-18.43,32.59-11.14,35.82ZM1647.55,950.91c16.9-15.66-2.24-46.21,0-69.14.45-4.6-5.69,1.19-7.49,1.97-9.36,4.04-14.59,1.3-23.05,8.95-6.84,6.18,1.29,15.35.35,23.65-2.3,20.3,5.22,57.71,30.19,34.57Z"/>
      <g id="path7" data-name="path">
        <g>
          <path class="st7" d="M908.44-165.78c17.25-7.07-7.7-11.24-8.42-5.76-.25,1.85,5.78,6.85,8.42,5.76Z"/>
          <path class="st16" d="M833.66-157.71c10.1-10.62,10.31-15.12-6.05-14.4-7.8.34-11.22-1.52-3.45,5.76,2.37,2.22,6.81,11.48,9.51,8.64Z"/>
          <path class="st10" d="M1011.74-133.51c14.37-3.17,30.99-19.15,41.75-30.49,15.44-16.28-25.74-8.42-34.57-8.12-11.52.39-40.6-6.22-41.49,3.7-1.04,11.56,17.7,17.36,23.95,26.84,2.14,3.24,7.65,8.67,10.36,8.07Z"/>
          <path class="st26" d="M528.65-88.57c2.14-2.14,2.72-3.83-.67-4.47-3.33-.63-1.96,7.1.67,4.47Z"/>
          <path class="st19" d="M956.1-52.84c5.45-1.9,13.1-3.74,8.71-11.52-1.57-2.79-17.55,14.6-8.71,11.52Z"/>
          <path class="st15" d="M946.38-47.08c1.59-1.02.86-3.62-1.22-2.4-1.62.95-.35,3.41,1.22,2.4Z"/>
          <path class="st20" d="M921.53-13.66c9.77-1.66,4.32-8.05,10.49-16.13,3.74-4.9,9.99-8.74,10.08-14.98.1-6.79-10.84,7.6-15.38,8.59-13.88,3.02-22.01,25.38-5.19,22.53Z"/>
          <path class="st23" d="M-357.65,33.59c2.15-1.81-2.53-4.83-4.03-3.01-1.35,1.62,2.67,4.16,4.03,3.01Z"/>
          <path class="st8" d="M-376.38,40.5c2.3-.8,8.98-2.15,3.17-4.03-2.06-.67-8.35,5.83-3.17,4.03Z"/>
          <path class="st14" d="M973.58,28.92c23.01-14.1,6.75-18.7-21.51-17.65-11.48.43-9.17,19.47-.38,22.25,7.88,2.5,14.73-.22,21.9-4.61Z"/>
          <path class="st5" d="M-445.66,67.01c26.06-1.96-1.25-38.9-12.33-16.13-2.02,4.14,6.4,5.82,7.58,10.31.22.84-2.87,1-3.34,4.67-.37,2.9,6.3,1.29,8.1,1.15Z"/>
          <path class="st27" d="M-257.8,219.13c4.74.37,8.12-.72,8.62-5.76,1.09-11.02-23.39,4.61-8.62,5.76Z"/>
          <path class="st17" d="M17.02,222.59c72.6-20.75-35.74-75.73-16.85-12.13,2.56,8.6,9.12,14.33,16.85,12.13Z"/>
          <path class="st25" d="M1127.35,673.18c.12-.57-.74-.28-.69,0,.02.1.66.14.69,0Z"/>
          <path class="st3" d="M832.93,370.1c1.79-12.97.19-13.42,8.51-23.83,26.12-32.71,49.17-21.18,34.04-54.54-8.78-19.36-16.57-63.33-12.2-84.13,3.56-16.97,7.48-23.71-10.32-26.08-12.23-1.63-37.65,14.51-51.86,18.49-28.04,7.86-62.96,21.26-88.74,10.76-19.96-8.13-34.55-12.61-48.28-29.67-16.5-20.49-15.66-41.32,3.34-54.62,26.02-18.21,23.52-12.24,52.52-36.43,23.06-19.23,34.71-39.8,16.61-65.55-16.28-23.17-17.17,22.46-35.36,25.21-26.14,3.96-51.16,25.02-77.57,24.31-18.76-.51-53.67-18.98-72.42-19.69-9.78-.37-32.76,10.43-26.4,23.04,13.06,25.9-15.82,36.74-2.22,56.47,15.92,23.09,27.41,22.39,51.49,27.23,26.46,5.32,90.07,30.64,62.16,69.57-15.85,22.11-6.48,25.78-35.52,46.09-23.92,16.73-50.56,21.19-77.35,26.44-23.74,4.65-7.93,13.87-35.73,12.34-19.22-1.06-41.66.46-54.16-16.95-4.46-6.22-10.05-9.98-16.46-5.69-40.32,26.98-18.72,19.92-25.66,62.23-1.4,8.54-1.87,16.51,7.55,22.23,8.27,5.03,9.35,10.08,20.88,13.49,34.99,10.32,71.02,1.36,100.12,21.85,20.84,14.67,41.43,36.1,48.12,62.28,4,15.65,35.85,36.35,36.01,50.88.44,40-19.65,48.96-62.23,45.58-32.35-2.57-55.62-22.92-80.67-38.26-11.22-6.87.56-16.06-14.98-24.6-16.24-8.93-34.32-3.99-48.4-4.08-21.81-.14-11.13,20.69-25.35,16.44-11.24-3.36-15.37-13.75-25.74-21.82-14.9-11.59-16.92-11.34-27.98-8-10.69,3.22-27.79,31.9-19.27,39.11,14.98,12.68,54.16,38.03,92.19,78.36,11.77,12.48,14.04,12.97,20.87,31.18,12.3,32.83,17.55-17.55,50.97-3.53,28.77,12.07,14.53,34.33,34.57,41.28,29.75,10.31,29.26-21.78,46.09-27.34,30.71-10.15,43.12,9.04,70.3,12.75,20.58,2.81,41.67,1.29,62.23-1.34,10.99-1.41,23.04,8.59,35.73,10.53,21.14,3.24,93.05,14,89.96,42.55-2.35,21.72,14.83,7.34,29.89,9.95,23.29,4.03,35.59.23,55.31-13.2,18.06-12.29,46.18-11.95,67.74-14.03,14.02-1.35,23.86,11.58,38.28,17.47,6.54,2.67,11.13,8.75,14.98,14.67,6.23,9.57,4.39-4.26,12.94,8.19,6.2,9.03,6.52,25.08,18.41,23.05,18.9-3.24,26.62-32.56,45.87-34.25,8.66-.76,40.03,12.21,29.99-8.39-4.06-8.33,3.34-17.74,2.21-27.66-1.71-15.09,23.65-27.21,13.9-39.49-19.4-24.41-25.94-1.27-46.1,2.34-21.43,3.84-18.49,5.32-42.64,3.97-10.65-.6-12.14,3.18-23.05-.85-10.55-3.9-22.64-9.67-28.46-18.98-2.43-3.88-6.96.87-8.82-2.3-2.52-4.3-5.81-5.87-9.97-8.96-26.74-19.86-54.08,10.43-70.81-41.75-5.33-16.61-48.99-1.83-57.27-11.52-5.11-5.98-10.81-22.45-22.89-20.07-3.43.67-10.84,5.51-9.7.48,3.89-17.15-.5-26.39-7.82-40.34-31.82-60.68,61.75-41.13,32.11-88.73-10.52-16.9,1.12-2.4,1.72-23.05.23-7.88-6.31-23.3-5.23-31.12Z"/>
          <path class="st18" d="M1530.4,888.68c4.98-3.18,19.89-11.76,4.79-13.87-6.47-.9-16.72,21.48-4.79,13.87Z"/>
          <path class="st11" d="M1524.46,889.83c.31-1.41-2.17-1.2-2.43,0-.27,1.24,2.23.9,2.43,0Z"/>
          <path class="st9" d="M1645.25,933.63c6.51-4.88,9.22-43.84-10.41-26.5-9.27,8.18,6.18,29.68,10.41,26.5Z"/>
        </g>
      </g>
      <path id="path8" data-name="path" class="st22" d="M1028.21-153.1c9.5-2.51,35.25-19.08,10.29-16.71-9.1.86-34.93-5.34-35.33,2.88-.42,8.65,9.33,9.28,14.59,14.04,3.14,2.85,1.03,2.29,10.45-.21ZM552.95,83.08c-10.23,3.25-6.78,29.67-9.99,40.6-10.28,35.04,17.32,22.98,32.76,27.46,22,6.37,48.2,38.7,62.34,21.9,7.99-9.49-2.22-34.71,10.92-42.45,9.87-5.81,3.08-8.01,14.08-14.02,6.07-3.32,10.82-7.77,17.04-10.51,16.01-7.05,26.83-14.93,40.34-24.11,16.07-10.93-36.92,9.43-41.49,9.23-19.71-.87-21.49,13.46-54.13,12.71-9.69-.22-15.57-3.91-25.39-5.6-12.05-2.08-34.83-18.9-46.48-15.2ZM21.18,206.45c8.82-5.24-3.09-16.89-8.33-16.24-7.51.94-1.15,21.88,8.33,16.24ZM322.64,537c14.84,22.37,40.26,33.68,57.83,53.3,10.54,11.76,38.33,15.73,44.95,24.97,4.17,5.82-1.18,14.57,9.22,13.38,30.78-3.52,53.14,2.91,67.27,27.25,2.97,5.11,10.71,11.91,13.46,8.06,40.81-56.99,75.41-15.85,115.94-6.98,25.58,5.6,50.71-6.87,73.37,1.21,19.18,6.84,16.91-2.57,37.82,10.31,23.64,14.56,54.97,3.21,75.12,23.12s.92,19.53,29.58,24.72c22.36,4.05,22.74-10.7,39.18-18.35,18.96-8.83,42.71.09,62.77-7.52,17.7-6.71,33.45-13.4,52.51,4.61,18,17.02,29.09,29.96,51.85,26.42,35.38-5.5,44.6-2.04,54-22,4.15-8.8,10-34,.15-35.78-13.17-2.38-21.09.84-31.12,11.43-9.07,9.58-18.07-12.24-36.88-6.85-22.05,6.31-37.75-9.59-55.32-16.2-16.5-6.21-21.33-26.44-40.34-19.93-56.86,19.47-30.77,3.39-78.75-16.62-8.68-3.62.79-15.86-9.76-17.05-18.27-2.06-12.44-15.63-19.82-25.35-2.68-3.53-6.97-8.79-11.07-4.84-8.63,8.31-14.7-8.99-16.47-14.98-3.23-10.98,6.71-13.36-7.04-21.53-12.34-7.33.25,18.11-1.96,22.68-9.13,18.86-14.9-17.1-19.06-23.04-3.65-5.21,6.25-7.52,9.64-11.53,7.66-9.04-2.7-25.69-.52-38.09,5.29-30.16,46.47-27.03,29.87-46.03-15.72-17.98-15.3-17.93-1.15-34.57,2.34-2.75-6.82-16.2-4.13-30,4.23-21.73,16.9-33.45,31.11-47.51,14.76-14.61,24.88-9.58,29.3-19.29,3.38-7.44-14.38-10.27-16.1-20.75-3.71-22.62-12.92-40.23-5.51-66.9,5.76-20.74-77.6,15.31-95.65,16.13-20.92.96-43.74-2.26-60.69-13.41-9.81-6.46-18.51-16.28-23.36,4.26-4.31,18.25-18.8,32.31-26.16,49.55s-28.2,13.12-40.36,27.4-31.07,15.06-48.41,15.26c-19.34.23-35.89,14.17-55.31,17.51-26.76,4.59-48.47-11.32-77.21-11.64-33.13-.37-18.88,48.4,9.22,48.33,21.01-.05,35.47,15.85,55.31,17.38,48.34,3.73,86.57,42.75,102.27,86.28,6.03,16.72,15.7,8.99,24.14,28.81,13.56,31.84,19.17,61.57-4.23,78.37-9.58,6.88-18.12,14.19-28.83,15.68-39.55,5.48-73.61-19.82-108.33-35.68-45.86-20.96-15.37-56.12-50.71-50.55-9.65,1.52-16.18,6.07-24.2,9.21-12.98,5.08-9.99,10.75-29.15,4.87-25.97-7.97-26.46-31.03-43.85-28.11-4.65.78-11.51,5-13.82,11.92-6.6,19.8,5.22,22.39,9.39,28.68Z"/>
      <path id="path9" data-name="path" class="st6" d="M614.77,145.37c17.11-1.72,26.8-20.55-3.82-27.81-15.26-3.62-31.08-8.65-40.82-15.98-12.41-9.34-9.69,10.34-12.24,17.28-6.73,18.29,41.11,28.09,56.88,26.51ZM411.65,528.23c-1.77-.16-3.55.24-5.08,1.13-20.77,12.11-40.31,7.16-57.35-9.45-7.15-6.98-11.38-18.42-16.47-1.15-8.08,27.47,63.15,62.77,85.79,76.06,29.73,17.45,60.94,37.18,91.31,47.24,16.61,5.5,13.16-29.57,23.27-26.51,5.14,1.56,12.68-.55,13.68-4.6,2.54-10.34-12.52-6.76-17.05-10.37-28.54-22.79-76.63-32.36-93.26-66.06-1.32-2.67-3.96-4.42-6.92-4.69l-17.92-1.6ZM697.39,236.81c-24.03-1.77-22.06,50.42-47.69,59.53-20.7,7.36-38.44,20.46-59.56,28.81-26.98,10.67-53.15,17.54-81.75,23.35-7.35,1.5-28.02-6.57-17.84,8.91,4.13,6.28,5.73,13.3,13.24,11.62,13.34-3,23.66,6.53,36.88,7.35,10.19.64,16.21,12.62,21.9,20.18,2.69,3.58,5.1,5.35,8.06,8.49,7.58,8.01,23.32,23.59,29.97,32.4,25.15,33.32,71.71,80.52,42.64,125.99-30.19,47.21-47.36,25.95-51.09,60.12-1.45,13.29,21.97,15.28,33.8,21.49,30.47,15.98,59.13-11.38,86.43,1.81,11.47,5.54,21.26-.76,31.12,3.57,20.76,9.13,20.78,4.88,40.33,8.41,15.99,2.89,27.78,8.45,42.79,15.5,7.66,3.6,11.73,20.98,22.12,18.44,8.38-2.05,13.15-9.39,20.37-11.98,5.96-2.14,2.74,2.84,8.8-4.16,7.02-8.1,18.77-3.02,28.08-7.68,3.43-1.71,5.32,1.88,9.22,3.05,10.48,3.15,20.53,5.16,31.11,3.69,20.39-2.83,29.72-5.78,12.19-25.2-6.98-7.74-10-9-21,0-7.23,5.92-14.62-2.52-21,3-30.32,26.24-30.25-29.1-62.39-36.72-25.15-5.96-12.08-30.98-28.81-37.86-8.94-3.67-11.61-13.81-21.84-6.01-11.61,8.85-27.33-28.99-30.87-40.33-5.99-19.2,5.23-36.54,6.61-53.68,1.54-19.09,23.74-23.3,20.26-33.9-11.73-35.77-10.59-35.25-7.49-76.06.6-7.88,6.01-14.76,11.44-20.5,15.28-16.17,31.42-30.9,45.13-47.5,9.64-11.68,4.53-33.65-4.57-46.09-6.2-8.48,1.21-24.46-9.43-23.7-22.53,1.6-44.58,13.5-67.99,14.57-14.76.67-27.25-.8-42.64-2.73-6.75-.84-26.51-6.19-26.51-6.19ZM1066.04,708.9c9.88-3.81,58.94-40.77,34.37-34.58-15.42,3.89-37.67,21.18-51.54,9.78-5.49-4.51-15.4-.75-21.29-5.17-4.84-3.64-7.84-1.39,2.85,4.9,5.69,3.35,2.06,4.47,10.37,9.61,8.06,4.98,13.08,20.14,25.23,15.45Z"/>
      <path id="path10" data-name="path" class="st12" d="M480.29,609.72c7.85,3.06,6.42,14.25,16.58,11.6,22.8-5.94-20.01-21.69-27.71-27.95-20.31-16.51-35.65-28.36-52.19-48.17-3.33-3.98-5.71-5.53-11.52-4.61-9.99,1.58-13.42,6.21-23.05,3.46-4.01-1.15-7.73-3.27-9.33.23-6.96,15.2,9.99,14.85,17.76,19.51,12.33,7.4,21.85,16.95,33.46,24.22,12.73,7.97,42.01,16.26,56.01,21.71ZM609.7,429.78c13.8,19.72,24.34,42.88,39.8,62.72,10.37,13.3,20.86,20.27,14.89,36.63-2.56,7.01,5,12.16,4.65,18.48-.44,8.02,1.98,17.73-4.77,22.41-15.24,10.57-17.11,26.35-32.94,38.34-18.68,14.15.27,6.32,1.74,16.42,4,27.6,40.06,6.38,58.56,8.18,35.7,3.48,69.11,8.88,103.33,22.87,14.4,5.89,30.82,19.32,45.63,15.05,5.89-1.7,12.22-7.4,18.15-10.28s32.6-.19,23-11.5c-29.55-34.81-18.18-14.53-44.99-32.09-27.43-17.96-10.61-34.26-48.48-35.1-7.62-.17-22.08-.82-23.1-10.38-1.32-12.29-5.48-18.45-10.43-28.58-4.59-9.4-2.68-12.28-6.07-18.52-6.11-11.24-2.01-25.58,3.03-34.49,12.67-22.43-5.46-26.92,13.73-42.66,9.1-7.47-5.65-15.79-4.56-20.8,2.91-13.38-6.58-15.77-4.24-28.87,2.03-11.37,6.66-22.19,8.89-34.46,4.15-22.89,29.73-30.36,35.26-49.93,4.46-15.81,26-20.11,20.5-33.72-4.58-11.32,12.47-36.66-2.69-33.21-10.54,2.4-30.71,10.46-41.17,13.15-13.79,3.56-42.7,5.15-56.86,3.61-49.76-5.39-31.55,26.27-76.4,48.83-10.98,5.52-31.79,18.7-42.64,24.45-11.7,6.2-22.25,16.55-36,20.89s-25.91,3.79-6.39,14.15c10.39,5.51,13.88,18.08,20.6,27.39,6.32,8.75,23.81,22.2,30,31.04Z"/>
      <path id="path11" data-name="path" class="st2" d="M586.75,362.65c-12.34,13.79,10.54,34.23,21.52,53.48,5.83,10.23,14.98,9.22,19.59,20.74,5.21,13.02,5.47,19.98,16.13,29.96,6.66,6.24,8.04,11.48,14.98,17.29,11.33,9.48,23.44,9.62,29.31,23.02,7.03,16.05-11.2,15.42,4.31,34.4,10.49,12.85-10.59,37.35-17.41,51.27-5.92,12.08-36.05,21.85-29.36,35.27,7.2,14.45,20.31-7.73,29.68-10.22,10.99-2.91,7.41,10.07,18.48,8.92,4.91-.51,8.44,2.77,13.83,3.3,17.1,1.69,28.56-4.17,41.53-2.12,25.76,4.06,48.77,32.09,75.07,29.09,35.12-4.01,12.46-16.12-3.71-42.58-7.25-11.87-12.09,2.28-21.95-13.2-4.11-6.45-12.77-9.55-16.93-2.89-10.77,17.23-17.9,2.02-28.12-4.09-8.17-4.88-.64-9.79-4.51-15.59-2.83-4.26-7.88-7.4-8.07-13.11-.76-23.31-19.78-45.28-13.76-68.72,3.62-14.09,2.61-26.18,9.72-38.04,4.78-7.97,5.23-13.73,5.43-22.13.34-14.44-6.47-14.22-11.69-27.61-3.63-9.31,3.89-15.72,6.66-23.28,2.72-7.43.61-15.04,6.74-22.06,5.89-6.75,10.98-14.75,13.6-24.52s68.4-92.07,38.68-67.24c-6.68,5.58-11.01,11.78-20.53,10.47-127.41-17.49-31.95-12.6-141.82,61.02-10.62,7.12-38.88,9.64-47.4,19.17Z"/>
      <path id="path12" data-name="path" class="st22" d="M703.57,473.81c11.65-2.74,14.06-7.88,16.51-20.75,1.44-7.59,4.75-9.36,1.5-18.09-7.97-21.48-6.61-48.26,5.52-69.49,7.78-13.62,16.07-30.45,23.29-41.33,3.86-5.81,21.48-18.14,13.89-24.36-16.13-13.21-26.47-3.63-42.16-3.46-19.15.21-27.37,37.81-45.49,46.62-20.11,9.78-37.15,23.64-57.62,32.15-23.79,9.88-26.66,11.31-9.23,26.1,45.06,38.22,23.03,84.79,76.07,72.86,19.45-4.37,8.87,1.81,17.71-.26ZM717.6,624.78c31.92,1.33,25.71-41.48,10.9-57.08-16.72-17.61-27.93,18.09-36.87,32.85-11.34,18.7,14.45,23.75,25.97,24.23ZM797.47,640.91c8.01-2.39,19.15-11.85,7.09-17.96-6.79-3.44-2.91-8.84-12.68-11.58-5.64-1.58-13.03,9.77-15.29,13.4-4.24,6.81,13.79,18.26,20.88,16.14Z"/>
      <path id="path13" data-name="path" class="st1" d="M731.96,317.28c-17.67-3.72-50.5,33.94-67.99,44.19-31.28,18.33-57.21,20.93-27.66,45.15,20.11,16.48,29.55,51.16,57.33,46.44,23.95-4.06,1.17-27.55,12.83-70.3,5.47-20.07,28.7-31.26,30.1-48.23.37-4.45-.24-16.34-4.61-17.26ZM716.49,615.56c9.07-3.22,16.26-17.77,6.25-25.11-11.74-8.6-28.33,32.94-6.25,25.11Z"/>
      <path id="path14" data-name="path" class="st22" d="M662.54,378.16c-12.41,6.8-15.15,14.27-2.22,26.5,7.58,7.17,8.41,32.49,20.01,25.35,6.81-4.19-.8-21.5,4.56-28.81,8.53-11.64,24.5-21.95,16.69-33.42-5.69-8.34-30.18,5.52-39.03,10.37Z"/>
    </g>
  </g>
</svg>