<svg xmlns="http://www.w3.org/2000/svg" xmlns:xlink="http://www.w3.org/1999/xlink" id="Layer_1" data-name="Layer 1" viewBox="0 0 805.04 414.23"><defs><style>.cls-1{fill:none}.cls-2{fill:#666;stroke:url(#linear-gradient);stroke-miterlimit:10;stroke-width:3px}</style><linearGradient id="linear-gradient" x1="16.51" x2="785.78" y1="206.81" y2="206.81" gradientUnits="userSpaceOnUse"><stop offset="0" stop-color="#fff"/><stop offset="1" stop-color="#000"/></linearGradient></defs><rect width="2048" height="2048" x="-645.61" y="-615.11" class="cls-1"/><path d="M19.96,376.95c-6.29,9.4,3.93,17.56,11.97,9.98,8.7-8.2,22.49-28.18,30.43-38.57,15.11-19.75,29.7-43.87,45.61-62.39,1.05-1.23,2.12-2.51,3.35-3.6,1.13-1,2.69-1.33,4.13-.89,4.61,1.4,14.1,5.54,16.3,6.55,14.66,6.72,33.29,19.41,48.1,23.91,7.37,2.24,11.07-2.3,9.45-7.57-.74-2.42-2.57-4.35-4.83-5.49-14.85-7.52-29.27-15.87-44.04-23.54-3.23-1.68-16.99-6.14-17.08-9.96-.12-4.81,8.91-12.95,9.54-13.49,1.34-1.13,2.21-1.28,3.92-1.02l45.88,27.2c5.35,3.02,12.9.35,11.7-6.64-1.02-5.95-32.63-22.94-39.32-27.73-2.15-1.54-4.82-3.28-6.97-5.2-1.99-1.78-2.44-4.72-1.14-7.05,2.32-4.15,6.51-9.79,8.85-8.56l40.09,26.93c.91.61,1.91,1.09,2.98,1.33,8.44,1.87,12.63-5.66,5.55-12.8-5.89-5.94-20.74-13.94-28.36-19.64-4.02-3.01-7.91-6.21-11.73-9.4l21.56-32.43c1.48-.2,2.11,1.15,2.91,2.09,16.97,19.81,32.12,47.81,47.58,69.42,19.64,27.47,40.75,54.69,61.58,81.42,13.87,17.79,29.59,34.28,41.48,53.53,1.27,2.06,3.23,3.67,5.58,4.25,8.81,2.15,12.47-8.7,5.78-16.62-33.05-42.35-67.28-85.24-98.16-129.22-.55-.79-.88-1.71-.96-2.67h0c-.07-.91.18-1.82.72-2.57l38.39-53.1c.54-.75,1.64-.79,2.23-.08l55.36,65.86c1.49,1.78,3.7,2.88,6.02,2.82,2.01-.05,3.95-.65,5.39-2.18,9.28-11.25,16.86-27.03,26.16-37.84,1.17-1.36,3.01-4.03,4.89-4.07,2.24-.06,33.58,19.37,38.85,22.16,5.5,2.91,16.68,9.3,21.94,11.06,10.06,3.37,14.88-5.6,7.24-11.23-2.62-1.94-7.04-3.82-10.06-5.45-4.19-2.27-28.03-15.52-40.98-24.52-3.14-2.18-7.95-4.26-7.47-8.44.33-2.93,13.17-21.63,16.12-25.83,2.54-3.62,8.94-13.82,13.36-13.83,2.5,0,13.09,6.2,16.19,7.91,17.98,9.89,36.66,23.51,55.12,31.89,3.83,1.74,9.86,5.43,13.13.71,3.07-4.44.52-8.1-2.99-10.85-17.89-14.02-45.55-26.09-65.23-38.77-.74-.48-1.49-.95-2.23-1.44-3.52-2.34-4.52-7.03-2.43-10.7.83-1.45,1.79-2.84,2.88-3.97,2.29-2.36,5.94-2.77,8.74-1.04l47.11,29.08c20,4.25,10.5-8.5,1.71-15.71-12.44-10.21-29.31-17.96-42.42-27.57-6.25-2.27,6.15-17.46,8.26-17.28,6.16.53,29.93,22.26,37.74,25.28,9.31,3.6,13.52-4.64,7.49-11.48-7.21-8.19-24.72-15.7-33.03-23.97-.86-.86-2.09-1.94-2.8-2.99-.52-.77-.48-1.79.02-2.58l20.39-31.83c.27-.42.82-.53,1.23-.24,1.63,1.13,4.27,4.62,5.08,5.72,21.53,29.18,40.49,63.92,61.75,94.25,20.35,29.03,46.01,58.82,64.63,88.37,2.99,4.74,6.79,8.74,4.03,14.66-4.93,10.54-19.72,29.47-27.03,39.97-20.42,29.33-42.58,57.48-63.67,86.32-3.94,7.1,1.45,13.45,8.55,11.9.63-.14,1.2-.49,1.58-1l57.64-76.42c.24-.32.6-.56,1.01-.59,2.9-.28,8.97,2.53,11.46,3.6,15.42,6.6,30.33,15.35,45.57,22.42,2.47.76,7.45,1.18,9.15-.95,2.21-3.31.37-7.56-2.75-9.44l-52.21-27.56c-1.2-.63-1.67-2.11-1.07-3.32.75-1.51,1.54-3.15,2.5-4.57,2.1-3.12,6.27-4.01,9.48-2.06,8.96,5.43,28.18,20.96,33.25,20.18,2.38-.37,5.52-3.38,5.25-5.93-.83-7.97-33.84-23.56-34.57-30.43-.49-4.64,16.83-23.07,19.15-28.83,1.23-2.33,3.41-2.15,4.9-.15,30.12,45.64,64.22,88.31,96.98,132.01,1.23,2.21,3.54,4.97,4.72,6.37,1.73,2.06,3.67,4.7,6.25,7.4,6.16,6.42,17.39.79,12.88-9.61-2.21-5.08-7.1-6.9-9.53-9.96-28.71-36.27-58.12-77.55-85.13-115.38-6.78-9.49-14.87-24.86-22.19-32.81-9.94-10.78-13.41,6.59-22.6,8.01-.26.04-.52-.09-.66-.32-16.16-26.8-36.33-51.09-54.33-76.6-27.44-38.9-52.58-83.83-80.59-120.91-3.41-4.51-5.54-9-11.82-7.53-.65.15-1.22.54-1.6,1.09l-141.92,207.71-57.99-70.98c-.34-.42-.83-.7-1.37-.76-3.27-.41-6.16,1.96-8.13,4.29-7.65,9.07-15.32,22.47-22.61,32.39-6.67,9.06-13.37,18.35-20.75,26.79-.63.72-1.73.76-2.41.09-.93-.91-1.82-1.84-2.65-2.86-15.35-18.93-27.86-44.17-43.61-62.39-2.27-2.63-4.38-3.92-7.04-3.81-2.46.1-4.69,1.51-6.08,3.54-37.24,54.74-76.64,107.84-116.26,160.83l-44.02,57.97Z" class="cls-2"/></svg>