<?xml version="1.0" encoding="utf-8"?>
<!-- Generator: Adobe Illustrator 23.0.5, SVG Export Plug-In . SVG Version: 6.00 Build 0)  -->
<svg version="1.1" xmlns="http://www.w3.org/2000/svg" xmlns:xlink="http://www.w3.org/1999/xlink" x="0px" y="0px"
	 viewBox="0 0 2000 2000" style="enable-background:new 0 0 2000 2000;" xml:space="preserve">
<style type="text/css">
	.st0{fill-rule:evenodd;clip-rule:evenodd;fill:#213555;}
	.st1{fill-rule:evenodd;clip-rule:evenodd;fill:#F1C376;}
</style>
<g id="Background">
	<rect x="0" class="st0" width="2000" height="2000"/>
</g>
<g id="Pattern">
	<path class="st1" d="M258.7,0L258.7,0l66,10.2l11,66.3V0H258.7L258.7,0z M167.8,300.1l-19.1-115.7L33.5,166.7l116.5-19l17.8-114.4
		l19.1,115.7l115.2,17.7l-116.5,19L167.8,300.1L167.8,300.1z M0,0v76.5l10.2-65.6L77,0H0L0,0z M335.6,256.9l-10.2,65.6l-66.8,10.9
		h77V256.9L335.6,256.9z M77,333.3l-66-10.2L0,256.9v76.5H77z"/>
	<path class="st1" d="M591.5,0L591.5,0l66,10.2l11,66.3V0H591.5L591.5,0z M500.7,300.1l-19.1-115.7l-115.2-17.7l116.5-19l17.8-114.4
		l19.1,115.7L635,166.7l-116.5,19L500.7,300.1L500.7,300.1z M332.9,0v76.5l10.2-65.6L409.9,0H332.9L332.9,0z M668.5,256.9
		l-10.2,65.6l-66.8,10.9h77V256.9L668.5,256.9z M409.9,333.3l-66-10.2l-11-66.3v76.5H409.9z"/>
	<path class="st1" d="M924.4,0L924.4,0l66,10.2l11,66.3V0H924.4L924.4,0z M833.6,300.1l-19.1-115.7l-115.2-17.7l116.5-19l17.8-114.4
		l19.1,115.7l115.2,17.7l-116.5,19L833.6,300.1L833.6,300.1z M665.7,0v76.5L676,10.9L742.7,0H665.7L665.7,0z M1001.4,256.9
		l-10.2,65.6l-66.8,10.9h77V256.9L1001.4,256.9z M742.7,333.3l-66-10.2l-11-66.3v76.5H742.7z"/>
	<path class="st1" d="M1257.3,0L1257.3,0l66,10.2l11,66.3V0H1257.3L1257.3,0z M1166.4,300.1l-19.1-115.7l-115.2-17.7l116.5-19
		l17.8-114.4l19.1,115.7l115.2,17.7l-116.5,19L1166.4,300.1L1166.4,300.1z M998.6,0v76.5l10.2-65.6L1075.6,0H998.6L998.6,0z
		 M1334.3,256.9l-10.2,65.6l-66.8,10.9h77V256.9L1334.3,256.9z M1075.6,333.3l-66-10.2l-11-66.3v76.5H1075.6z"/>
	<path class="st1" d="M1590.1,0L1590.1,0l66,10.2l11,66.3V0H1590.1L1590.1,0z M1499.3,300.1l-19.1-115.7L1365,166.7l116.5-19
		l17.8-114.4l19.1,115.7l115.2,17.7l-116.5,19L1499.3,300.1L1499.3,300.1z M1331.5,0v76.5l10.2-65.6L1408.5,0H1331.5L1331.5,0z
		 M1667.1,256.9l-10.2,65.6l-66.8,10.9h77V256.9L1667.1,256.9z M1408.5,333.3l-66-10.2l-11-66.3v76.5H1408.5z"/>
	<path class="st1" d="M1923,0L1923,0l66,10.2l11,66.3V0H1923L1923,0z M1832.2,300.1l-19.1-115.7l-115.2-17.7l116.5-19l17.8-114.4
		l19.1,115.7l115.2,17.7l-116.5,19L1832.2,300.1L1832.2,300.1z M1664.4,0v76.5l10.2-65.6L1741.3,0H1664.4L1664.4,0z M2000,256.9
		l-10.2,65.6l-66.8,10.9h77V256.9L2000,256.9z M1741.3,333.3l-66-10.2l-11-66.3v76.5H1741.3z"/>
	<path class="st1" d="M258.7,333.3L258.7,333.3l66,10.2l11,66.3v-76.5H258.7L258.7,333.3z M167.8,633.4l-19.1-115.7L33.5,500
		L150,481l17.8-114.4l19.1,115.7L302.1,500l-116.5,19L167.8,633.4L167.8,633.4z M0,333.3v76.5l10.2-65.6L77,333.3H0L0,333.3z
		 M335.6,590.2l-10.2,65.6l-66.8,10.9h77V590.2L335.6,590.2z M77,666.7l-66-10.2L0,590.2v76.5H77z"/>
	<path class="st1" d="M591.5,333.3L591.5,333.3l66,10.2l11,66.3v-76.5H591.5L591.5,333.3z M500.7,633.4l-19.1-115.7L366.4,500
		l116.5-19l17.8-114.4l19.1,115.7L635,500l-116.5,19L500.7,633.4L500.7,633.4z M332.9,333.3v76.5l10.2-65.6l66.8-10.9H332.9
		L332.9,333.3z M668.5,590.2l-10.2,65.6l-66.8,10.9h77V590.2L668.5,590.2z M409.9,666.7l-66-10.2l-11-66.3v76.5H409.9z"/>
	<path class="st1" d="M924.4,333.3L924.4,333.3l66,10.2l11,66.3v-76.5H924.4L924.4,333.3z M833.6,633.4l-19.1-115.7L699.3,500
		l116.5-19l17.8-114.4l19.1,115.7L967.9,500l-116.5,19L833.6,633.4L833.6,633.4z M665.7,333.3v76.5l10.2-65.6l66.8-10.9H665.7
		L665.7,333.3z M1001.4,590.2l-10.2,65.6l-66.8,10.9h77V590.2L1001.4,590.2z M742.7,666.7l-66-10.2l-11-66.3v76.5H742.7z"/>
	<path class="st1" d="M1257.3,333.3L1257.3,333.3l66,10.2l11,66.3v-76.5H1257.3L1257.3,333.3z M1166.4,633.4l-19.1-115.7L1032.1,500
		l116.5-19l17.8-114.4l19.1,115.7l115.2,17.7l-116.5,19L1166.4,633.4L1166.4,633.4z M998.6,333.3v76.5l10.2-65.6l66.8-10.9H998.6
		L998.6,333.3z M1334.3,590.2l-10.2,65.6l-66.8,10.9h77V590.2L1334.3,590.2z M1075.6,666.7l-66-10.2l-11-66.3v76.5H1075.6z"/>
	<path class="st1" d="M1590.1,333.3L1590.1,333.3l66,10.2l11,66.3v-76.5H1590.1L1590.1,333.3z M1499.3,633.4l-19.1-115.7L1365,500
		l116.5-19l17.8-114.4l19.1,115.7l115.2,17.7l-116.5,19L1499.3,633.4L1499.3,633.4z M1331.5,333.3v76.5l10.2-65.6l66.8-10.9H1331.5
		L1331.5,333.3z M1667.1,590.2l-10.2,65.6l-66.8,10.9h77V590.2L1667.1,590.2z M1408.5,666.7l-66-10.2l-11-66.3v76.5H1408.5z"/>
	<path class="st1" d="M1923,333.3L1923,333.3l66,10.2l11,66.3v-76.5H1923L1923,333.3z M1832.2,633.4l-19.1-115.7L1697.9,500
		l116.5-19l17.8-114.4l19.1,115.7l115.2,17.7L1850,519L1832.2,633.4L1832.2,633.4z M1664.4,333.3v76.5l10.2-65.6l66.8-10.9H1664.4
		L1664.4,333.3z M2000,590.2l-10.2,65.6l-66.8,10.9h77V590.2L2000,590.2z M1741.3,666.7l-66-10.2l-11-66.3v76.5H1741.3z"/>
	<path class="st1" d="M258.7,666.7L258.7,666.7l66,10.2l11,66.3v-76.5H258.7L258.7,666.7z M167.8,966.7l-19.1-115.7L33.5,833.3
		l116.5-19l17.8-114.4l19.1,115.7l115.2,17.7l-116.5,19L167.8,966.7L167.8,966.7z M0,666.7v76.5l10.2-65.6L77,666.7H0L0,666.7z
		 M335.6,923.5l-10.2,65.6l-66.8,10.9h77V923.5L335.6,923.5z M77,1000l-66-10.2L0,923.5v76.5H77z"/>
	<path class="st1" d="M591.5,666.7L591.5,666.7l66,10.2l11,66.3v-76.5H591.5L591.5,666.7z M500.7,966.7l-19.1-115.7l-115.2-17.7
		l116.5-19l17.8-114.4l19.1,115.7L635,833.3l-116.5,19L500.7,966.7L500.7,966.7z M332.9,666.7v76.5l10.2-65.6l66.8-10.9H332.9
		L332.9,666.7z M668.5,923.5l-10.2,65.6l-66.8,10.9h77V923.5L668.5,923.5z M409.9,1000l-66-10.2l-11-66.3v76.5H409.9z"/>
	<path class="st1" d="M924.4,666.7L924.4,666.7l66,10.2l11,66.3v-76.5H924.4L924.4,666.7z M833.6,966.7l-19.1-115.7l-115.2-17.7
		l116.5-19l17.8-114.4l19.1,115.7l115.2,17.7l-116.5,19L833.6,966.7L833.6,966.7z M665.7,666.7v76.5l10.2-65.6l66.8-10.9H665.7
		L665.7,666.7z M1001.4,923.5l-10.2,65.6l-66.8,10.9h77V923.5L1001.4,923.5z M742.7,1000l-66-10.2l-11-66.3v76.5H742.7z"/>
	<path class="st1" d="M1257.3,666.7L1257.3,666.7l66,10.2l11,66.3v-76.5H1257.3L1257.3,666.7z M1166.4,966.7l-19.1-115.7
		l-115.2-17.7l116.5-19l17.8-114.4l19.1,115.7l115.2,17.7l-116.5,19L1166.4,966.7L1166.4,966.7z M998.6,666.7v76.5l10.2-65.6
		l66.8-10.9H998.6L998.6,666.7z M1334.3,923.5l-10.2,65.6l-66.8,10.9h77V923.5L1334.3,923.5z M1075.6,1000l-66-10.2l-11-66.3v76.5
		H1075.6z"/>
	<path class="st1" d="M1590.1,666.7L1590.1,666.7l66,10.2l11,66.3v-76.5H1590.1L1590.1,666.7z M1499.3,966.7l-19.1-115.7L1365,833.3
		l116.5-19l17.8-114.4l19.1,115.7l115.2,17.7l-116.5,19L1499.3,966.7L1499.3,966.7z M1331.5,666.7v76.5l10.2-65.6l66.8-10.9H1331.5
		L1331.5,666.7z M1667.1,923.5l-10.2,65.6l-66.8,10.9h77V923.5L1667.1,923.5z M1408.5,1000l-66-10.2l-11-66.3v76.5H1408.5z"/>
	<path class="st1" d="M1923,666.7L1923,666.7l66,10.2l11,66.3v-76.5H1923L1923,666.7z M1832.2,966.7l-19.1-115.7l-115.2-17.7
		l116.5-19l17.8-114.4l19.1,115.7l115.2,17.7l-116.5,19L1832.2,966.7L1832.2,966.7z M1664.4,666.7v76.5l10.2-65.6l66.8-10.9H1664.4
		L1664.4,666.7z M2000,923.5l-10.2,65.6L1923,1000h77V923.5L2000,923.5z M1741.3,1000l-66-10.2l-11-66.3v76.5H1741.3z"/>
	<path class="st1" d="M258.7,1000L258.7,1000l66,10.2l11,66.3V1000H258.7L258.7,1000z M167.8,1300l-19.1-115.7l-115.2-17.7l116.5-19
		l17.8-114.4l19.1,115.7l115.2,17.7l-116.5,19L167.8,1300L167.8,1300z M0,1000v76.5l10.2-65.6L77,1000H0L0,1000z M335.6,1256.9
		l-10.2,65.6l-66.8,10.9h77V1256.9L335.6,1256.9z M77,1333.3l-66-10.2l-11-66.3v76.5H77z"/>
	<path class="st1" d="M591.5,1000L591.5,1000l66,10.2l11,66.3V1000H591.5L591.5,1000z M500.7,1300l-19.1-115.7l-115.2-17.7l116.5-19
		l17.8-114.4l19.1,115.7l115.2,17.7l-116.5,19L500.7,1300L500.7,1300z M332.9,1000v76.5l10.2-65.6l66.8-10.9H332.9L332.9,1000z
		 M668.5,1256.9l-10.2,65.6l-66.8,10.9h77V1256.9L668.5,1256.9z M409.9,1333.3l-66-10.2l-11-66.3v76.5H409.9z"/>
	<path class="st1" d="M924.4,1000L924.4,1000l66,10.2l11,66.3V1000H924.4L924.4,1000z M833.6,1300l-19.1-115.7l-115.2-17.7l116.5-19
		l17.8-114.4l19.1,115.7l115.2,17.7l-116.5,19L833.6,1300L833.6,1300z M665.7,1000v76.5l10.2-65.6l66.8-10.9H665.7L665.7,1000z
		 M1001.4,1256.9l-10.2,65.6l-66.8,10.9h77V1256.9L1001.4,1256.9z M742.7,1333.3l-66-10.2l-11-66.3v76.5H742.7z"/>
	<path class="st1" d="M1257.3,1000L1257.3,1000l66,10.2l11,66.3V1000H1257.3L1257.3,1000z M1166.4,1300l-19.1-115.7l-115.2-17.7
		l116.5-19l17.8-114.4l19.1,115.7l115.2,17.7l-116.5,19L1166.4,1300L1166.4,1300z M998.6,1000v76.5l10.2-65.6l66.8-10.9H998.6
		L998.6,1000z M1334.3,1256.9l-10.2,65.6l-66.8,10.9h77V1256.9L1334.3,1256.9z M1075.6,1333.3l-66-10.2l-11-66.3v76.5H1075.6z"/>
	<path class="st1" d="M1590.1,1000L1590.1,1000l66,10.2l11,66.3V1000H1590.1L1590.1,1000z M1499.3,1300l-19.1-115.7l-115.2-17.7
		l116.5-19l17.8-114.4l19.1,115.7l115.2,17.7l-116.5,19L1499.3,1300L1499.3,1300z M1331.5,1000v76.5l10.2-65.6l66.8-10.9H1331.5
		L1331.5,1000z M1667.1,1256.9l-10.2,65.6l-66.8,10.9h77V1256.9L1667.1,1256.9z M1408.5,1333.3l-66-10.2l-11-66.3v76.5H1408.5z"/>
	<path class="st1" d="M1923,1000L1923,1000l66,10.2l11,66.3V1000H1923L1923,1000z M1832.2,1300l-19.1-115.7l-115.2-17.7l116.5-19
		l17.8-114.4l19.1,115.7l115.2,17.7l-116.5,19L1832.2,1300L1832.2,1300z M1664.4,1000v76.5l10.2-65.6l66.8-10.9H1664.4L1664.4,1000z
		 M2000,1256.9l-10.2,65.6l-66.8,10.9h77V1256.9L2000,1256.9z M1741.3,1333.3l-66-10.2l-11-66.3v76.5H1741.3z"/>
	<path class="st1" d="M258.7,1333.3L258.7,1333.3l66,10.2l11,66.3v-76.5H258.7L258.7,1333.3z M167.8,1633.4l-19.1-115.7L33.5,1500
		l116.5-19l17.8-114.4l19.1,115.7l115.2,17.7l-116.5,19L167.8,1633.4L167.8,1633.4z M0,1333.3v76.5l10.2-65.6l66.8-10.9H0L0,1333.3z
		 M335.6,1590.2l-10.2,65.6l-66.8,10.9h77V1590.2L335.6,1590.2z M77,1666.7l-66-10.2l-11-66.3v76.5H77z"/>
	<path class="st1" d="M591.5,1333.3L591.5,1333.3l66,10.2l11,66.3v-76.5H591.5L591.5,1333.3z M500.7,1633.4l-19.1-115.7L366.4,1500
		l116.5-19l17.8-114.4l19.1,115.7L635,1500l-116.5,19L500.7,1633.4L500.7,1633.4z M332.9,1333.3v76.5l10.2-65.6l66.8-10.9H332.9
		L332.9,1333.3z M668.5,1590.2l-10.2,65.6l-66.8,10.9h77V1590.2L668.5,1590.2z M409.9,1666.7l-66-10.2l-11-66.3v76.5H409.9z"/>
	<path class="st1" d="M924.4,1333.3L924.4,1333.3l66,10.2l11,66.3v-76.5H924.4L924.4,1333.3z M833.6,1633.4l-19.1-115.7L699.3,1500
		l116.5-19l17.8-114.4l19.1,115.7l115.2,17.7l-116.5,19L833.6,1633.4L833.6,1633.4z M665.7,1333.3v76.5l10.2-65.6l66.8-10.9H665.7
		L665.7,1333.3z M1001.4,1590.2l-10.2,65.6l-66.8,10.9h77V1590.2L1001.4,1590.2z M742.7,1666.7l-66-10.2l-11-66.3v76.5H742.7z"/>
	<path class="st1" d="M1257.3,1333.3L1257.3,1333.3l66,10.2l11,66.3v-76.5H1257.3L1257.3,1333.3z M1166.4,1633.4l-19.1-115.7
		l-115.2-17.7l116.5-19l17.8-114.4l19.1,115.7l115.2,17.7l-116.5,19L1166.4,1633.4L1166.4,1633.4z M998.6,1333.3v76.5l10.2-65.6
		l66.8-10.9H998.6L998.6,1333.3z M1334.3,1590.2l-10.2,65.6l-66.8,10.9h77V1590.2L1334.3,1590.2z M1075.6,1666.7l-66-10.2l-11-66.3
		v76.5H1075.6z"/>
	<path class="st1" d="M1590.1,1333.3L1590.1,1333.3l66,10.2l11,66.3v-76.5H1590.1L1590.1,1333.3z M1499.3,1633.4l-19.1-115.7
		L1365,1500l116.5-19l17.8-114.4l19.1,115.7l115.2,17.7l-116.5,19L1499.3,1633.4L1499.3,1633.4z M1331.5,1333.3v76.5l10.2-65.6
		l66.8-10.9H1331.5L1331.5,1333.3z M1667.1,1590.2l-10.2,65.6l-66.8,10.9h77V1590.2L1667.1,1590.2z M1408.5,1666.7l-66-10.2
		l-11-66.3v76.5H1408.5z"/>
	<path class="st1" d="M1923,1333.3L1923,1333.3l66,10.2l11,66.3v-76.5H1923L1923,1333.3z M1832.2,1633.4l-19.1-115.7l-115.2-17.7
		l116.5-19l17.8-114.4l19.1,115.7l115.2,17.7l-116.5,19L1832.2,1633.4L1832.2,1633.4z M1664.4,1333.3v76.5l10.2-65.6l66.8-10.9
		H1664.4L1664.4,1333.3z M2000,1590.2l-10.2,65.6l-66.8,10.9h77V1590.2L2000,1590.2z M1741.3,1666.7l-66-10.2l-11-66.3v76.5H1741.3z
		"/>
	<path class="st1" d="M258.7,1666.7L258.7,1666.7l66,10.2l11,66.3v-76.5H258.7L258.7,1666.7z M167.8,1966.7l-19.1-115.7l-115.2-17.7
		l116.5-19l17.8-114.4l19.1,115.7l115.2,17.7l-116.5,19L167.8,1966.7L167.8,1966.7z M0,1666.7v76.5l10.2-65.6l66.8-10.9H0L0,1666.7z
		 M335.6,1923.5l-10.2,65.6l-66.8,10.9h77V1923.5L335.6,1923.5z M77,2000l-66-10.2l-11-66.3v76.5H77z"/>
	<path class="st1" d="M591.5,1666.7L591.5,1666.7l66,10.2l11,66.3v-76.5H591.5L591.5,1666.7z M500.7,1966.7l-19.1-115.7l-115.2-17.7
		l116.5-19l17.8-114.4l19.1,115.7l115.2,17.7l-116.5,19L500.7,1966.7L500.7,1966.7z M332.9,1666.7v76.5l10.2-65.6l66.8-10.9H332.9
		L332.9,1666.7z M668.5,1923.5l-10.2,65.6l-66.8,10.9h77V1923.5L668.5,1923.5z M409.9,2000l-66-10.2l-11-66.3v76.5H409.9z"/>
	<path class="st1" d="M924.4,1666.7L924.4,1666.7l66,10.2l11,66.3v-76.5H924.4L924.4,1666.7z M833.6,1966.7l-19.1-115.7l-115.2-17.7
		l116.5-19l17.8-114.4l19.1,115.7l115.2,17.7l-116.5,19L833.6,1966.7L833.6,1966.7z M665.7,1666.7v76.5l10.2-65.6l66.8-10.9H665.7
		L665.7,1666.7z M1001.4,1923.5l-10.2,65.6l-66.8,10.9h77V1923.5L1001.4,1923.5z M742.7,2000l-66-10.2l-11-66.3v76.5H742.7z"/>
	<path class="st1" d="M1257.3,1666.7L1257.3,1666.7l66,10.2l11,66.3v-76.5H1257.3L1257.3,1666.7z M1166.4,1966.7l-19.1-115.7
		l-115.2-17.7l116.5-19l17.8-114.4l19.1,115.7l115.2,17.7l-116.5,19L1166.4,1966.7L1166.4,1966.7z M998.6,1666.7v76.5l10.2-65.6
		l66.8-10.9H998.6L998.6,1666.7z M1334.3,1923.5l-10.2,65.6l-66.8,10.9h77V1923.5L1334.3,1923.5z M1075.6,2000l-66-10.2l-11-66.3
		v76.5H1075.6z"/>
	<path class="st1" d="M1590.1,1666.7L1590.1,1666.7l66,10.2l11,66.3v-76.5H1590.1L1590.1,1666.7z M1499.3,1966.7l-19.1-115.7
		l-115.2-17.7l116.5-19l17.8-114.4l19.1,115.7l115.2,17.7l-116.5,19L1499.3,1966.7L1499.3,1966.7z M1331.5,1666.7v76.5l10.2-65.6
		l66.8-10.9H1331.5L1331.5,1666.7z M1667.1,1923.5l-10.2,65.6l-66.8,10.9h77V1923.5L1667.1,1923.5z M1408.5,2000l-66-10.2l-11-66.3
		v76.5H1408.5z"/>
	<path class="st1" d="M1923,1666.7L1923,1666.7l66,10.2l11,66.3v-76.5H1923L1923,1666.7z M1832.2,1966.7l-19.1-115.7l-115.2-17.7
		l116.5-19l17.8-114.4l19.1,115.7l115.2,17.7l-116.5,19L1832.2,1966.7L1832.2,1966.7z M1664.4,1666.7v76.5l10.2-65.6l66.8-10.9
		H1664.4L1664.4,1666.7z M2000,1923.5l-10.2,65.6L1923,2000h77V1923.5L2000,1923.5z M1741.3,2000l-66-10.2l-11-66.3v76.5H1741.3z"/>
</g>
</svg>
